<svg width="15" height="15" viewBox="0 0 15 15" fill="none" xmlns="http://www.w3.org/2000/svg">
<path d="M7.4707 0C3.3416 0 0 3.34131 0 7.4707C0 11.5692 3.31128 15 7.4707 15C11.5911 15 15 11.6041 15 7.4707C15 3.30674 11.5647 0 7.4707 0ZM7.4707 14.127C3.83599 14.127 0.873047 11.1377 0.873047 7.4707C0.873047 3.83599 3.83599 0.873047 7.4707 0.873047C11.1377 0.873047 14.127 3.83599 14.127 7.4707C14.127 11.1377 11.1377 14.127 7.4707 14.127Z" fill="#B4B4B4"/>
<path d="M7.4707 2.63672C4.80524 2.63672 2.63672 4.80524 2.63672 7.4707C2.63672 10.1462 4.80079 12.3633 7.4707 12.3633C8.551 12.3633 9.6438 12.0002 10.4689 11.3672C10.6615 11.2194 10.6978 10.9436 10.5501 10.751C10.4023 10.5584 10.1264 10.5221 9.9339 10.6698C9.25922 11.1875 8.36142 11.4902 7.4707 11.4902C5.28987 11.4902 3.51562 9.68385 3.51562 7.4707C3.51562 5.28987 5.28987 3.50977 7.4707 3.50977C9.68385 3.50977 11.4844 5.28987 11.4844 7.4707V7.91016C11.4844 8.39478 11.0901 8.78906 10.6055 8.78906C10.1208 8.78906 9.72656 8.39478 9.72656 7.91016C9.72656 7.69248 9.72656 5.94246 9.72656 5.71289C9.72656 5.4702 9.5298 5.27344 9.28711 5.27344C9.04441 5.27344 8.84766 5.4702 8.84766 5.71289V5.74075C8.4508 5.43814 7.97074 5.27344 7.4707 5.27344C6.25913 5.27344 5.27344 6.25913 5.27344 7.4707C5.27344 8.68228 6.25913 9.66797 7.4707 9.66797C8.12763 9.66797 8.7322 9.38607 9.16216 8.91176C9.47997 9.36832 10.0083 9.66797 10.6055 9.66797C11.5747 9.66797 12.3633 8.87941 12.3633 7.91016V7.4707C12.3633 4.79725 10.1429 2.63672 7.4707 2.63672ZM7.4707 8.79492C6.74376 8.79492 6.15234 8.19765 6.15234 7.4707C6.15234 6.74376 6.74376 6.14648 7.4707 6.14648C8.2171 6.14648 8.84766 6.75606 8.84766 7.4707C8.84766 8.18534 8.2171 8.79492 7.4707 8.79492Z" fill="#B4B4B4"/>
</svg>
