<svg width="14" height="14" viewBox="0 0 14 14" fill="none" xmlns="http://www.w3.org/2000/svg">
<g clip-path="url(#clip0)">
<path d="M7.7986 0.959501L0.741032 8.06001L1.32102 8.64L8.37859 1.53949C9.30828 0.6098 10.9301 0.610655 11.8589 1.53949C12.8182 2.49919 12.8182 4.06045 11.8589 5.01983L4.22138 12.7007C3.58126 13.3395 2.54113 13.3403 1.901 12.7007C1.26131 12.061 1.26131 11.02 1.901 10.3803L9.53856 2.69989C9.85814 2.38031 10.3793 2.38031 10.699 2.69989C11.0187 3.01947 11.0185 3.53985 10.699 3.85986L3.64139 10.9603L4.22138 11.5403L11.2789 4.43985C11.9182 3.79973 11.9182 2.75917 11.2789 2.1199C10.6385 1.47935 9.59827 1.48021 8.95858 2.1199L1.32102 9.80029C0.361744 10.7597 0.361744 12.3209 1.32102 13.2806C2.28072 14.2396 3.84113 14.24 4.80136 13.2806L12.4389 5.59982C13.7182 4.32086 13.7182 2.23921 12.4389 0.959501C11.1592 -0.320208 9.07756 -0.31946 7.7986 0.959501Z" fill="#B4B4B4"/>
</g>
<defs>
<clipPath id="clip0">
<rect width="14" height="14" fill="white" transform="matrix(-1 0 0 1 14 0)"/>
</clipPath>
</defs>
</svg>
