<svg width="15" height="15" viewBox="0 0 15 15" fill="none" xmlns="http://www.w3.org/2000/svg">
<path d="M7.44568 8.08242C7.46121 8.08242 7.47675 8.08242 7.49538 8.08242C7.5016 8.08242 7.50781 8.08242 7.51402 8.08242C7.52334 8.08242 7.53576 8.08242 7.54508 8.08242C8.45521 8.06689 9.19139 7.74695 9.73498 7.13502C10.9309 5.78691 10.7321 3.47588 10.7103 3.25533C10.6327 1.59971 9.84991 0.807621 9.20381 0.437979C8.72234 0.161524 8.16012 0.0124249 7.53266 0H7.51091C7.50781 0 7.5016 0 7.49849 0H7.47985C7.13506 0 6.4579 0.0559122 5.8087 0.425554C5.15639 0.795196 4.36119 1.58729 4.28354 3.25533C4.26179 3.47588 4.063 5.78691 5.2589 7.13502C5.79938 7.74695 6.53556 8.06689 7.44568 8.08242ZM5.1129 3.33299C5.1129 3.32367 5.11601 3.31435 5.11601 3.30814C5.21851 1.08097 6.79959 0.841789 7.47675 0.841789H7.48917C7.49538 0.841789 7.5047 0.841789 7.51402 0.841789C8.3527 0.860427 9.77846 1.20211 9.87476 3.30814C9.87476 3.31746 9.87476 3.32678 9.87786 3.33299C9.88097 3.35473 10.0984 5.46697 9.11062 6.579C8.71924 7.02009 8.19739 7.23752 7.51091 7.24374C7.5047 7.24374 7.5016 7.24374 7.49538 7.24374C7.48917 7.24374 7.48606 7.24374 7.47985 7.24374C6.79648 7.23752 6.27153 7.02009 5.88325 6.579C4.89857 5.47318 5.1098 3.35163 5.1129 3.33299Z" fill="#B4B4B4"/>
<path d="M13.8787 11.9155C13.8787 11.9124 13.8787 11.9093 13.8787 11.9061C13.8787 11.8813 13.8756 11.8564 13.8756 11.8285C13.8569 11.2135 13.8166 9.77527 12.4685 9.31554C12.4591 9.31244 12.4467 9.30933 12.4374 9.30622C11.0365 8.94901 9.87165 8.14138 9.85922 8.13206C9.66974 7.9985 9.40882 8.04509 9.27525 8.23457C9.14168 8.42405 9.18828 8.68498 9.37776 8.81854C9.43056 8.85582 10.6668 9.71625 12.2137 10.1138C12.9375 10.3717 13.0183 11.1451 13.04 11.8533C13.04 11.8813 13.04 11.9061 13.0431 11.931C13.0462 12.2106 13.0276 12.6423 12.9779 12.8908C12.4747 13.1766 10.5022 14.1644 7.50159 14.1644C4.5134 14.1644 2.52851 13.1735 2.0222 12.8877C1.9725 12.6392 1.95075 12.2075 1.95697 11.9279C1.95697 11.903 1.96007 11.8782 1.96007 11.8502C1.98182 11.142 2.06258 10.3686 2.78633 10.1107C4.33324 9.71314 5.56952 8.84961 5.62232 8.81544C5.8118 8.68187 5.8584 8.42095 5.72483 8.23146C5.59126 8.04198 5.33034 7.99539 5.14086 8.12896C5.12843 8.13828 3.96981 8.9459 2.56268 9.30312C2.55026 9.30622 2.54094 9.30933 2.53162 9.31244C1.18351 9.77527 1.14313 11.2135 1.1245 11.8254C1.1245 11.8533 1.1245 11.8782 1.12139 11.903C1.12139 11.9061 1.12139 11.9093 1.12139 11.9124C1.11828 12.0739 1.11518 12.9032 1.27981 13.3195C1.31087 13.4002 1.36678 13.4686 1.44133 13.5152C1.53452 13.5773 3.7679 15 7.5047 15C11.2415 15 13.4749 13.5742 13.5681 13.5152C13.6395 13.4686 13.6985 13.4002 13.7296 13.3195C13.8849 12.9064 13.8818 12.077 13.8787 11.9155Z" fill="#B4B4B4"/>
</svg>
