<svg width="20" height="20" viewBox="0 0 20 20" fill="none" xmlns="http://www.w3.org/2000/svg">
<path d="M10 0C4.48615 0 0 4.48577 0 10C0 15.5142 4.48615 20 10 20C15.5138 20 20 15.5142 20 10C20 4.48577 15.5138 0 10 0ZM10 19.2308C4.91038 19.2308 0.769231 15.0896 0.769231 10C0.769231 4.91038 4.91038 0.769231 10 0.769231C15.0896 0.769231 19.2308 4.91038 19.2308 10C19.2308 15.0896 15.0896 19.2308 10 19.2308Z" fill="#639645"/>
<path d="M14.7123 5.89846L8.80115 12.5485L5.24 9.69961C5.07461 9.56692 4.83192 9.59422 4.69961 9.75961C4.56692 9.92576 4.59385 10.1677 4.75961 10.3004L8.60577 13.3773C8.67654 13.4338 8.76154 13.4615 8.84615 13.4615C8.95231 13.4615 9.05808 13.4177 9.13385 13.3323L15.2877 6.40923C15.4288 6.25076 15.4146 6.0073 15.2558 5.86653C15.0965 5.72499 14.8538 5.73923 14.7123 5.89846Z" fill="#639645"/>
</svg>
