<?xml version="1.0" encoding="utf-8"?><svg xmlns="http://www.w3.org/2000/svg" xmlns:xlink="http://www.w3.org/1999/xlink"><symbol viewBox="0 0 15 15" id="f_email" xmlns="http://www.w3.org/2000/svg"><path d="M7.47 0A7.466 7.466 0 0 0 0 7.47C0 11.57 3.311 15 7.47 15 11.592 15 15 11.604 15 7.47 15 3.308 11.565 0 7.47 0zm0 14.127c-3.634 0-6.597-2.99-6.597-6.656C.873 3.836 3.836.873 7.471.873c3.667 0 6.656 2.963 6.656 6.598 0 3.667-2.99 6.656-6.656 6.656z"/><path d="M7.47 2.637A4.84 4.84 0 0 0 2.638 7.47c0 2.675 2.164 4.892 4.834 4.892 1.08 0 2.173-.363 2.998-.996a.44.44 0 0 0-.535-.697 4.12 4.12 0 0 1-2.463.82c-2.181 0-3.955-1.806-3.955-4.02 0-2.18 1.774-3.96 3.955-3.96 2.213 0 4.013 1.78 4.013 3.96v.44a.88.88 0 0 1-1.757 0V5.713a.44.44 0 0 0-.88 0v.028a2.264 2.264 0 0 0-1.376-.468 2.2 2.2 0 0 0-2.198 2.198 2.2 2.2 0 0 0 2.198 2.197c.657 0 1.261-.282 1.691-.756a1.757 1.757 0 0 0 3.201-1.002v-.44c0-2.673-2.22-4.833-4.892-4.833zm0 6.158a1.325 1.325 0 0 1 0-2.649c.747 0 1.378.61 1.378 1.325 0 .714-.63 1.324-1.377 1.324z"/></symbol><symbol viewBox="0 0 14 14" id="f_phone" xmlns="http://www.w3.org/2000/svg"><path d="M13.993 11.046a.677.677 0 0 1-.207.593l-1.971 1.956a1.109 1.109 0 0 1-.349.252c-.143.07-.284.114-.422.133l-.089.008c-.05.005-.114.007-.193.007-.187 0-.491-.032-.911-.096-.42-.064-.934-.222-1.541-.474-.608-.252-1.297-.63-2.068-1.134-.77-.504-1.59-1.196-2.46-2.075a16.242 16.242 0 0 1-1.72-1.956A13.938 13.938 0 0 1 .967 6.533a9.3 9.3 0 0 1-.623-1.438c-.138-.43-.232-.8-.281-1.111a3.67 3.67 0 0 1-.06-.734l.015-.296c.02-.139.065-.28.134-.423.069-.143.153-.26.252-.348L2.373.212a.653.653 0 0 1 .475-.208c.129 0 .242.037.34.111.1.075.184.166.253.275l1.586 3.008a.721.721 0 0 1 .074.519.924.924 0 0 1-.252.474l-.726.727a.247.247 0 0 0-.052.096.366.366 0 0 0-.022.111c.04.207.128.445.266.711.119.238.302.527.549.867.247.341.597.734 1.052 1.179.445.454.84.807 1.186 1.06.345.251.634.437.867.555.232.119.41.19.533.215l.185.037c.02 0 .052-.007.097-.022a.248.248 0 0 0 .096-.052l.845-.86a.908.908 0 0 1 .622-.237c.168 0 .302.03.4.09h.015l2.86 1.689c.208.128.332.291.371.489z"/></symbol><symbol viewBox="0 0 15 15" id="f_user" xmlns="http://www.w3.org/2000/svg"><path d="M7.446 8.082h.099c.91-.015 1.646-.335 2.19-.947 1.196-1.348.997-3.66.975-3.88C10.633 1.6 9.85.808 9.204.438A3.456 3.456 0 0 0 7.533 0H7.48c-.345 0-1.022.056-1.671.426-.653.37-1.448 1.161-1.525 2.83-.022.22-.221 2.53.975 3.879.54.612 1.277.932 2.187.947zM5.113 3.333c0-.01.003-.019.003-.025C5.219 1.081 6.8.842 7.476.842h.038c.839.018 2.264.36 2.36 2.466 0 .01 0 .019.004.025.003.022.22 2.134-.767 3.246-.392.441-.914.659-1.6.665H7.48c-.684-.006-1.208-.224-1.597-.665-.984-1.106-.773-3.227-.77-3.246z"/><path d="M13.879 11.915v-.009c0-.025-.003-.05-.003-.078-.02-.614-.06-2.053-1.407-2.512l-.032-.01c-1.4-.357-2.565-1.165-2.578-1.174a.419.419 0 1 0-.481.687c.053.037 1.289.897 2.836 1.295.723.258.804 1.031.826 1.74 0 .027 0 .052.003.077.003.28-.015.711-.065.96-.503.286-2.476 1.273-5.476 1.273-2.989 0-4.973-.99-5.48-1.276a5.336 5.336 0 0 1-.065-.96c0-.025.003-.05.003-.078.022-.708.103-1.481.826-1.74 1.547-.397 2.784-1.26 2.836-1.295a.419.419 0 1 0-.481-.686c-.013.01-1.171.817-2.578 1.174a.388.388 0 0 0-.031.01c-1.348.462-1.389 1.9-1.407 2.512 0 .028 0 .053-.004.078v.01c-.003.16-.006.99.159 1.406.03.081.087.15.161.196C1.535 13.577 3.768 15 7.505 15s5.97-1.426 6.063-1.485a.416.416 0 0 0 .162-.196c.155-.413.152-1.242.149-1.404z"/></symbol><symbol viewBox="0 0 43 43" id="form1" xmlns="http://www.w3.org/2000/svg"><path d="M35.155 28.277a3.97 3.97 0 0 0-2.802 1.156 3.911 3.911 0 0 0-1.173 2.784c0 1.05.411 2.032 1.173 2.785a3.985 3.985 0 0 0 2.802 1.155c2.154 0 3.905-1.768 3.905-3.94 0-2.171-1.751-3.94-3.905-3.94zm0 6.13c-1.209 0-2.224-.999-2.224-2.19 0-1.19 1.015-2.189 2.224-2.189 1.19 0 2.154.98 2.154 2.19 0 1.207-.963 2.188-2.154 2.188zm1.015-19.255a.85.85 0 0 0-.586-.228h-4.492a.878.878 0 0 0-.875.876v7.18c0 .481.393.875.875.875h7.127a.878.878 0 0 0 .876-.875v-4.807a.876.876 0 0 0-.29-.648l-2.635-2.373zm1.174 6.952h-5.376v-5.437h3.274l2.102 1.891v3.546zm-23.571 6.173a3.97 3.97 0 0 0-2.802 1.156 3.911 3.911 0 0 0-1.173 2.784c0 1.05.411 2.032 1.173 2.785a3.986 3.986 0 0 0 2.802 1.155c2.154 0 3.905-1.768 3.905-3.94 0-2.171-1.751-3.94-3.905-3.94zm0 6.13c-1.208 0-2.224-.999-2.224-2.19 0-1.19 1.016-2.189 2.224-2.189 1.19 0 2.154.98 2.154 2.19 0 1.207-.963 2.188-2.154 2.188zm-5.84-5.053h-1.76v-2.329a.878.878 0 0 0-.876-.876.878.878 0 0 0-.875.876v3.205c0 .481.394.875.875.875h2.636a.878.878 0 0 0 .875-.875.878.878 0 0 0-.875-.876zm4.439-4.772a.878.878 0 0 0-.876-.876H.876a.878.878 0 0 0-.876.876c0 .482.394.876.876.876h10.62a.873.873 0 0 0 .876-.876zm-9.719-3.16l10.62.06a.884.884 0 0 0 .885-.866.867.867 0 0 0-.867-.885l-10.62-.061h-.01a.87.87 0 0 0-.875.867.867.867 0 0 0 .867.884zm1.786-3.976H15.06a.878.878 0 0 0 .876-.876.878.878 0 0 0-.876-.875H4.44a.878.878 0 0 0-.876.875c0 .482.394.876.875.876zm38.237-1.182l-6.27-5.192a.863.863 0 0 0-.56-.202h-7.372V7.718a.878.878 0 0 0-.875-.875H5.297a.878.878 0 0 0-.875.875v6.41c0 .481.394.875.875.875a.878.878 0 0 0 .876-.875V8.594h20.559v20.76h-7.18a.878.878 0 0 0-.876.876c0 .481.394.875.876.875h10.69a.878.878 0 0 0 .876-.875.878.878 0 0 0-.875-.876h-1.76V12.622h7.057l5.709 4.728-.062 11.986h-.91a.878.878 0 0 0-.876.876c0 .482.394.876.876.876h1.777a.87.87 0 0 0 .876-.867L43 16.947a.925.925 0 0 0-.324-.683z"/></symbol><symbol viewBox="0 0 39 39" id="form2" xmlns="http://www.w3.org/2000/svg"><path d="M27.054 2.958L13.6 16.412a.847.847 0 0 0-.221.387l-1.155 4.447a.849.849 0 0 0 1.034 1.034l4.448-1.155a.85.85 0 0 0 .386-.221L31.546 7.45l2.71-2.71a.848.848 0 0 0 0-1.199L30.962.25a.848.848 0 0 0-1.2 0l-2.708 2.708-.001.001zm-9.998 16.583l-2.827.734.734-2.827L27.654 4.757l2.093 2.093-12.691 12.69zM30.363 2.048l2.093 2.093-1.51 1.51-2.092-2.094 1.51-1.509z"/><path d="M33.656 9.193a.848.848 0 0 0-.849.849v27.261H6.193V4.866h15.703a.848.848 0 0 0 0-1.697H5.344a.848.848 0 0 0-.848.849v34.134c0 .468.38.848.848.848h28.312c.468 0 .848-.38.848-.848v-28.11a.848.848 0 0 0-.848-.849z"/></symbol></svg>