<?xml version="1.0" encoding="utf-8"?><svg xmlns="http://www.w3.org/2000/svg" xmlns:xlink="http://www.w3.org/1999/xlink"><symbol viewBox="0 0 14 14" id="phone" xmlns="http://www.w3.org/2000/svg"><path d="M13.993 11.046a.677.677 0 0 1-.207.593l-1.971 1.956a1.109 1.109 0 0 1-.349.252c-.143.07-.284.114-.422.133l-.089.008c-.05.005-.114.007-.193.007-.187 0-.491-.032-.911-.096-.42-.064-.934-.222-1.541-.474-.608-.252-1.297-.63-2.068-1.134-.77-.504-1.59-1.196-2.46-2.075a16.242 16.242 0 0 1-1.72-1.956A13.938 13.938 0 0 1 .967 6.533a9.3 9.3 0 0 1-.623-1.438c-.138-.43-.232-.8-.281-1.111a3.67 3.67 0 0 1-.06-.734l.015-.296c.02-.139.065-.28.134-.423.069-.143.153-.26.252-.348L2.373.212a.653.653 0 0 1 .475-.208c.129 0 .242.037.34.111.1.075.184.166.253.275l1.586 3.008a.721.721 0 0 1 .074.519.924.924 0 0 1-.252.474l-.726.727a.247.247 0 0 0-.052.096.366.366 0 0 0-.022.111c.04.207.128.445.266.711.119.238.302.527.549.867.247.341.597.734 1.052 1.179.445.454.84.807 1.186 1.06.345.251.634.437.867.555.232.119.41.19.533.215l.185.037c.02 0 .052-.007.097-.022a.248.248 0 0 0 .096-.052l.845-.86a.908.908 0 0 1 .622-.237c.168 0 .302.03.4.09h.015l2.86 1.689c.208.128.332.291.371.489z"/></symbol></svg>