<?xml version="1.0" standalone="no"?>
<!DOCTYPE svg PUBLIC "-//W3C//DTD SVG 20010904//EN"
 "http://www.w3.org/TR/2001/REC-SVG-20010904/DTD/svg10.dtd">
<svg version="1.0" xmlns="http://www.w3.org/2000/svg"
 width="93.000000pt" height="93.000000pt" viewBox="0 0 93.000000 93.000000"
 preserveAspectRatio="xMidYMid meet">
<metadata>
Created by potrace 1.11, written by Peter Selinger 2001-2013
</metadata>
<g transform="translate(0.000000,93.000000) scale(0.100000,-0.100000)"
fill="#000000" stroke="none">
<path d="M250 820 l0 -110 30 27 c29 25 30 30 30 110 l0 83 -30 0 -30 0 0
-110z"/>
<path d="M459 857 c-24 -18 -116 -96 -174 -147 -27 -25 -71 -62 -98 -84 l-47
-38 0 -200 0 -199 48 3 c48 3 48 2 43 53 0 8 -7 15 -13 15 -10 0 -13 36 -13
146 l1 146 45 42 c25 22 70 61 99 86 30 25 68 57 86 73 17 15 36 27 40 27 5
-1 34 -23 64 -50 l55 -50 3 40 c3 35 -1 43 -34 72 -21 18 -42 38 -48 43 -33
30 -41 33 -57 22z"/>
<path d="M620 763 c1 -16 2 -90 1 -165 l-1 -138 -153 0 -154 0 1 71 c1 39 -1
74 -4 79 -3 4 -17 -2 -33 -15 l-27 -24 0 -236 0 -236 32 3 33 3 0 137 c0 75 3
140 8 144 4 4 72 8 152 8 l145 1 0 -62 0 -63 35 0 35 0 0 260 0 260 -36 0
c-33 0 -35 -2 -34 -27z"/>
<path d="M700 630 c0 -25 7 -51 18 -65 15 -19 18 -41 16 -161 -1 -77 -2 -141
-3 -144 -1 -3 -88 -5 -194 -5 l-192 0 -3 -33 -3 -32 230 0 231 0 0 199 0 199
-50 42 -50 42 0 -42z"/>
<path d="M630 85 l0 -85 30 0 30 0 0 85 0 85 -30 0 -30 0 0 -85z"/>
</g>
</svg>
