<svg width="60" height="60" viewBox="0 0 60 60" fill="none" xmlns="http://www.w3.org/2000/svg">
<path d="M7.43014 0V5.40492H4.75146V8.96941H7.43002V11.1081H4.75146V14.6726H7.43002V16.8112H4.75146V20.3757H7.43002V22.5144H4.75146V26.0789H7.43002V28.2176H4.75146V31.7821H7.43002V33.9207H4.75146V37.4852H7.43002V39.6239H4.75146V43.1884H7.43002V45.3271H4.75146V48.8916H7.43002V51.0302H4.75146V54.5947H7.43002V60H55.2486V0H7.43014ZM10.9946 56.4355V54.5952H13.6733V51.0307H10.9946V48.892H13.6733V45.3275H10.9946V43.1889H13.6733V39.6244H10.9946V37.4857H13.6733V33.9212H10.9946V31.7825H13.6733V28.218H10.9946V26.0794H13.6733V22.5149H10.9946V20.3762H13.6733V16.8117H10.9946V14.673H13.6733V11.1081H10.9946V8.96941H13.6733V5.40492H10.9946V3.56449H51.6842V56.4355H10.9946Z" fill="#639645"/>
<path d="M46.8692 14.475L43.2517 18.0925L41.7296 16.5704L39.2092 19.0909L43.2517 23.1335L49.3897 16.9955L46.8692 14.475Z" fill="#639645"/>
<path d="M36.673 18.4131H17.0278V21.9776H36.673V18.4131Z" fill="#639645"/>
<path d="M46.8692 26.3008L43.2517 29.9183L41.7296 28.3963L39.2092 30.9168L43.2517 34.9594L49.3897 28.8212L46.8692 26.3008Z" fill="#639645"/>
<path d="M36.673 30.239H17.0278V33.8034H36.673V30.239Z" fill="#639645"/>
<path d="M46.8692 38.1266L43.2517 41.7442L41.7296 40.2222L39.2092 42.7426L43.2517 46.7853L49.3897 40.6471L46.8692 38.1266Z" fill="#639645"/>
<path d="M36.673 42.0648H17.0278V45.6293H36.673V42.0648Z" fill="#639645"/>
</svg>
