<svg width="60" height="60" viewBox="0 0 60 60" fill="none" xmlns="http://www.w3.org/2000/svg">
<path d="M17.4084 7.77667L14.9225 5.29077L9.95055 10.2626L7.46466 7.77667L4.97876 10.2626L9.95055 15.2344L17.4084 7.77667Z" fill="#639645"/>
<path d="M30.4124 15.2344C34.6125 15.2344 38.0295 11.8173 38.0295 7.61719C38.0295 3.41707 34.6125 0 30.4124 0C26.2122 0 22.7952 3.41707 22.7952 7.61719C22.7952 11.8173 26.2122 15.2344 30.4124 15.2344ZM30.4124 3.51562C32.674 3.51562 34.5139 5.35559 34.5139 7.61719C34.5139 9.87879 32.674 11.7188 30.4124 11.7188C28.1508 11.7188 26.3108 9.87879 26.3108 7.61719C26.3108 5.35559 28.1508 3.51562 30.4124 3.51562Z" fill="#639645"/>
<path d="M49.748 18.75H11.1934C8.28559 18.75 5.91992 21.1157 5.91992 24.0234C5.91992 26.9312 8.28559 29.2969 11.1934 29.2969H21.623V60H39.2012V29.2969H49.748C52.6558 29.2969 55.0215 26.9312 55.0215 24.0234C55.0215 21.1157 52.6558 18.75 49.748 18.75ZM49.748 25.7812H35.6855V56.4844H32.1699V38.0859H28.6543V56.4844H25.1387V25.7812H11.1934C10.2241 25.7812 9.43555 24.9927 9.43555 24.0234C9.43555 23.0542 10.2241 22.2656 11.1934 22.2656H28.6543V32.8125H32.1699V22.2656H49.748C50.7173 22.2656 51.5059 23.0542 51.5059 24.0234C51.5059 24.9927 50.7173 25.7812 49.748 25.7812Z" fill="#639645"/>
<path d="M47.2623 15.2344L49.7482 12.7485L52.2342 15.2344L54.7201 12.7485L52.2341 10.2626L54.7201 7.77656L52.2342 5.29066L49.7482 7.77668L47.2623 5.29066L44.7764 7.77656L47.2623 10.2626L44.7764 12.7485L47.2623 15.2344Z" fill="#639645"/>
</svg>
