<svg width="60" height="60" viewBox="0 0 60 60" fill="none" xmlns="http://www.w3.org/2000/svg">
<path d="M56.4845 33.6328C56.4845 30.725 54.1188 28.3594 51.2111 28.3594H43.3791C44.3494 25.7359 44.9511 22.6198 45.3029 20.2593C45.6583 17.8764 44.9609 15.4643 43.3896 13.6413C41.8231 11.8237 39.5482 10.7812 37.1486 10.7812C36.1778 10.7812 35.3908 11.5683 35.3908 12.5391C35.3908 16.7856 32.9503 23.1962 30.1023 24.6241C26.8965 26.2311 20.59 28.012 19.3338 28.3594C18.5496 28.3594 2.51603 28.3594 1.75806 28.3594C0.787275 28.3594 0.000244154 29.1464 0.000244154 30.1172V54.7266C0.000126966 55.6973 0.787158 56.4844 1.75794 56.4844H7.03138V58.2422C7.03138 59.213 7.81841 60 8.78919 60H16.0548C18.2018 60 20.0518 58.7096 20.8738 56.8643L33.2066 59.9475C33.3461 59.9823 33.4893 60 33.6329 60H44.1798C47.0876 60 49.4533 57.6343 49.4533 54.7266C49.4533 54.0408 49.3216 53.3852 49.0825 52.7837C51.3193 52.1732 52.9689 50.1232 52.9689 47.6953C52.9689 47.0095 52.8373 46.354 52.5981 45.7525C54.835 45.1419 56.4845 43.092 56.4845 40.6641C56.4845 39.3146 55.9751 38.0821 55.1385 37.1484C55.9751 36.2148 56.4845 34.9822 56.4845 33.6328ZM7.03126 52.9688H3.51564V31.875H7.03126V52.9688ZM17.8125 54.7266C17.8125 55.6958 17.024 56.4844 16.0547 56.4844H10.5469V31.875H17.8125V54.7266ZM40.6642 38.9062H51.2111C52.1803 38.9062 52.9689 39.6948 52.9689 40.6641C52.9689 41.6333 52.1803 42.4219 51.2111 42.4219C49.8857 42.4219 41.7475 42.4219 40.6642 42.4219C39.6934 42.4219 38.9064 43.2089 38.9064 44.1797C38.9064 45.1505 39.6934 45.9375 40.6642 45.9375H47.6954C48.6647 45.9375 49.4533 46.7261 49.4533 47.6953C49.4533 48.6646 48.6647 49.4531 47.6954 49.4531C46.9502 49.4531 41.4094 49.4531 40.6642 49.4531C39.6934 49.4531 38.9064 50.2402 38.9064 51.2109C38.9064 52.1817 39.6934 52.9688 40.6642 52.9688H44.1798C45.1491 52.9688 45.9376 53.7573 45.9376 54.7266C45.9376 55.6958 45.1491 56.4844 44.1798 56.4844H33.8494L21.3283 53.3542V31.4503C23.6999 30.7693 28.7304 29.2446 31.6778 27.767C35.7149 25.743 38.187 19.3413 38.7717 14.5841C39.5195 14.8576 40.1945 15.3191 40.7269 15.9367C41.6297 16.984 42.0302 18.3705 41.8259 19.7408C40.9933 25.3253 39.9488 27.6176 39.092 29.331C38.8195 29.8759 38.8486 30.523 39.1689 31.0412C39.4891 31.5594 40.0549 31.875 40.6642 31.875H51.2111C52.1803 31.875 52.9689 32.6636 52.9689 33.6328C52.9689 34.6021 52.1803 35.3906 51.2111 35.3906H40.6642C39.6934 35.3906 38.9064 36.1777 38.9064 37.1484C38.9064 38.1192 39.6934 38.9062 40.6642 38.9062Z" fill="#639645"/>
<path d="M38.9062 0C37.9355 0 37.1484 0.787031 37.1484 1.75781V5.50781C37.1484 6.47859 37.9355 7.26562 38.9062 7.26562C39.877 7.26562 40.6641 6.47859 40.6641 5.50781V1.75781C40.6641 0.787031 39.877 0 38.9062 0Z" fill="#639645"/>
<path d="M28.9627 8.8985L26.4768 6.4126C25.7905 5.72611 24.6774 5.72611 23.9909 6.4126C23.3045 7.09908 23.3045 8.21201 23.9909 8.8985L26.4768 11.3844C27.1632 12.0709 28.2764 12.0709 28.9627 11.3844C29.6492 10.6979 29.6492 9.58498 28.9627 8.8985Z" fill="#639645"/>
<path d="M23.0857 19.5703H19.5701C18.5993 19.5703 17.8123 20.3573 17.8123 21.3281C17.8123 22.2989 18.5993 23.0859 19.5701 23.0859H23.0857C24.0565 23.0859 24.8435 22.2989 24.8435 21.3281C24.8435 20.3573 24.0565 19.5703 23.0857 19.5703Z" fill="#639645"/>
<path d="M58.2422 19.5703H54.7266C53.7558 19.5703 52.9688 20.3573 52.9688 21.3281C52.9688 22.2989 53.7558 23.0859 54.7266 23.0859H58.2422C59.213 23.0859 60 22.2989 60 21.3281C60 20.3573 59.213 19.5703 58.2422 19.5703Z" fill="#639645"/>
<path d="M53.8219 6.4126C53.1355 5.72611 52.0225 5.72611 51.336 6.4126L48.8501 8.8985C48.1636 9.58498 48.1636 10.6979 48.8501 11.3844C49.5364 12.0709 50.6496 12.0709 51.336 11.3844L53.8219 8.8985C54.5084 8.21201 54.5084 7.09908 53.8219 6.4126Z" fill="#639645"/>
</svg>
