<svg width="14" height="14" viewBox="0 0 14 14" fill="none" xmlns="http://www.w3.org/2000/svg">
<path d="M13.9933 11.0458C14.023 11.2731 13.9537 11.4707 13.7858 11.6387L11.8147 13.5949C11.7257 13.6938 11.6097 13.7778 11.4664 13.8469C11.3231 13.9161 11.1824 13.9606 11.0441 13.9803C11.0342 13.9803 11.0045 13.9828 10.9551 13.9878C10.9057 13.9927 10.8415 13.9952 10.7625 13.9952C10.5747 13.9952 10.2708 13.9631 9.8509 13.8988C9.43098 13.8346 8.91721 13.6765 8.30961 13.4246C7.70186 13.1726 7.01271 12.7946 6.24206 12.2908C5.4714 11.787 4.65129 11.0953 3.7818 10.2159C3.09016 9.53412 2.51709 8.882 2.06259 8.25955C1.60808 7.63705 1.2425 7.06151 0.965847 6.5329C0.689168 6.00429 0.481676 5.52509 0.343349 5.09528C0.205021 4.66548 0.111156 4.29496 0.0617534 3.98372C0.0123507 3.67248 -0.00741041 3.42794 0.00247014 3.25009C0.0123507 3.07224 0.0172909 2.97344 0.0172909 2.95368C0.037052 2.81535 0.0815145 2.67455 0.150678 2.53128C0.219842 2.38801 0.303827 2.27192 0.402632 2.18299L2.3738 0.211825C2.51213 0.0734973 2.67022 0.0043335 2.84807 0.0043335C2.97651 0.0043335 3.09014 0.0413855 3.18894 0.11549C3.28775 0.189594 3.37173 0.280989 3.4409 0.389675L5.02673 3.3983C5.11565 3.55639 5.14035 3.7293 5.10083 3.91703C5.06131 4.10476 4.97732 4.26285 4.84888 4.39129L4.12266 5.11751C4.10289 5.13727 4.0856 5.16939 4.07078 5.21385C4.05596 5.25831 4.04855 5.29536 4.04855 5.32501C4.08807 5.5325 4.177 5.76963 4.31533 6.0364C4.43389 6.27354 4.61668 6.56254 4.8637 6.90342C5.11071 7.2443 5.46147 7.63703 5.91597 8.08165C6.3606 8.53621 6.75582 8.88939 7.10164 9.14139C7.44739 9.39325 7.73649 9.57858 7.96868 9.69715C8.20087 9.81571 8.37872 9.88735 8.50221 9.91197L8.68742 9.94905C8.70718 9.94905 8.73936 9.94162 8.78378 9.92682C8.82824 9.91197 8.86035 9.89471 8.88014 9.87492L9.7249 9.01532C9.90285 8.85725 10.1102 8.77821 10.3474 8.77821C10.5154 8.77821 10.6487 8.80782 10.7475 8.86713H10.7623L13.6227 10.5567C13.8303 10.6852 13.9538 10.8482 13.9933 11.0458Z" fill="#B4B4B4"/>
</svg>
