<svg width="39" height="39" viewBox="0 0 39 39" fill="none" xmlns="http://www.w3.org/2000/svg">
<path d="M27.0538 2.95813L13.6 16.4119C13.4931 16.5188 13.4166 16.6521 13.3787 16.7985L12.224 21.2457C12.1485 21.5368 12.2326 21.846 12.4453 22.0588C12.6065 22.2199 12.8229 22.3073 13.0451 22.3073C13.1162 22.3073 13.1877 22.2983 13.2583 22.2801L17.7055 21.1252C17.8518 21.0872 17.9853 21.0107 18.0921 20.904L31.5456 7.45045C31.5459 7.45017 31.5462 7.45003 31.5463 7.44989C31.5464 7.44975 31.5467 7.44932 31.5469 7.44918L34.2553 4.74075C34.5867 4.40948 34.5867 3.87234 34.2554 3.54121L30.9632 0.248561C30.804 0.0893574 30.5884 0 30.3633 0C30.1384 0 29.9226 0.0893574 29.7635 0.248561L27.0552 2.95685C27.055 2.95714 27.0547 2.95728 27.0545 2.95742C27.0544 2.95756 27.0541 2.95798 27.0538 2.95813ZM17.0558 19.541L14.229 20.2751L14.963 17.4483L27.6543 4.75701L29.747 6.84984L17.0558 19.541ZM30.3633 2.04801L32.456 4.14084L30.9467 5.65016L28.854 3.55733L30.3633 2.04801Z" fill="#639645"/>
<path d="M33.6557 9.19335C33.1872 9.19335 32.8073 9.57326 32.8073 10.0417V37.3032H6.19266V4.86616H21.8957C22.3641 4.86616 22.744 4.48624 22.744 4.01782C22.744 3.54941 22.3641 3.16949 21.8957 3.16949H5.34433C4.87591 3.16949 4.496 3.54941 4.496 4.01782V38.1517C4.496 38.6201 4.87591 39 5.34433 39H33.6557C34.1241 39 34.504 38.6201 34.504 38.1517V10.0417C34.504 9.57326 34.1242 9.19335 33.6557 9.19335Z" fill="#639645"/>
</svg>
