<svg width="43" height="43" viewBox="0 0 43 43" fill="none" xmlns="http://www.w3.org/2000/svg">
<path d="M35.1548 28.277C34.104 28.277 33.1059 28.6886 32.3529 29.4328C31.5999 30.1858 31.1796 31.1665 31.1796 32.2172C31.1796 33.2679 31.5911 34.2485 32.3529 35.0015C33.1146 35.7458 34.104 36.1573 35.1548 36.1573C37.3087 36.1573 39.0599 34.3886 39.0599 32.2172C39.0599 30.0457 37.3087 28.277 35.1548 28.277ZM35.1548 34.4061C33.9464 34.4061 32.9308 33.408 32.9308 32.2172C32.9308 31.0264 33.9464 30.0282 35.1548 30.0282C36.3456 30.0282 37.3087 31.0089 37.3087 32.2172C37.3087 33.4255 36.3456 34.4061 35.1548 34.4061ZM36.1704 15.152C36.0128 15.0032 35.8027 14.9244 35.5838 14.9244H31.092C30.6105 14.9244 30.2165 15.3184 30.2165 15.7999V22.9797C30.2165 23.4613 30.6105 23.8553 31.092 23.8553H38.2193C38.7009 23.8553 39.0949 23.4613 39.0949 22.9797V18.1728C39.0949 17.9276 38.9898 17.6912 38.8059 17.5249L36.1704 15.152ZM37.3437 22.1042H31.9676V16.6668H35.2423L37.3437 18.558V22.1042ZM13.773 28.277C12.7223 28.277 11.7241 28.6886 10.9711 29.4328C10.2181 30.1858 9.7978 31.1665 9.7978 32.2172C9.7978 33.2679 10.2093 34.2485 10.9711 35.0015C11.7328 35.7458 12.7223 36.1573 13.773 36.1573C15.9269 36.1573 17.6781 34.3886 17.6781 32.2172C17.6781 30.0457 15.9269 28.277 13.773 28.277ZM13.773 34.4061C12.5647 34.4061 11.549 33.408 11.549 32.2172C11.549 31.0264 12.5647 30.0282 13.773 30.0282C14.9638 30.0282 15.9269 31.0089 15.9269 32.2172C15.9269 33.4255 14.9638 34.4061 13.773 34.4061ZM7.9328 29.354H6.17288V27.025C6.17288 26.5434 5.77886 26.1494 5.29729 26.1494C4.81572 26.1494 4.42171 26.5434 4.42171 27.025V30.2296C4.42171 30.7112 4.81572 31.1052 5.29729 31.1052H7.9328C8.41438 31.1052 8.80839 30.7112 8.80839 30.2296C8.80839 29.748 8.41438 29.354 7.9328 29.354ZM12.372 24.5821C12.372 24.1005 11.978 23.7065 11.4964 23.7065H0.875585C0.394013 23.7065 0 24.1005 0 24.5821C0 25.0636 0.394013 25.4577 0.875585 25.4577H11.4964C11.978 25.4577 12.372 25.0724 12.372 24.5821ZM2.65302 21.4212L13.2739 21.4825C13.7554 21.4825 14.1495 21.0972 14.1582 20.6157C14.167 20.1253 13.773 19.7313 13.2914 19.7313L2.67054 19.67C2.66178 19.67 2.66178 19.67 2.66178 19.67C2.18021 19.67 1.78619 20.0553 1.78619 20.5369C1.77744 21.0272 2.17145 21.4212 2.65302 21.4212ZM4.43922 17.446H15.0601C15.5416 17.446 15.9357 17.052 15.9357 16.5705C15.9357 16.0889 15.5416 15.6949 15.0601 15.6949H4.43922C3.95765 15.6949 3.56363 16.0889 3.56363 16.5705C3.56363 17.052 3.95765 17.446 4.43922 17.446ZM42.676 16.264L36.4068 11.0718C36.2492 10.9405 36.0566 10.8704 35.8465 10.8704H28.474V7.7183C28.474 7.23673 28.08 6.84271 27.5985 6.84271H5.29729C4.81572 6.84271 4.42171 7.23673 4.42171 7.7183V14.1276C4.42171 14.6092 4.81572 15.0032 5.29729 15.0032C5.77886 15.0032 6.17288 14.6092 6.17288 14.1276V8.59388H26.7316V29.354H19.5518C19.0702 29.354 18.6762 29.748 18.6762 30.2296C18.6762 30.7112 19.0702 31.1052 19.5518 31.1052H30.2427C30.7243 31.1052 31.1183 30.7112 31.1183 30.2296C31.1183 29.748 30.7243 29.354 30.2427 29.354H28.4828V12.6216H35.54L41.2488 17.3497L41.1875 29.3365H40.2769C39.7954 29.3365 39.4013 29.7305 39.4013 30.2121C39.4013 30.6937 39.7954 31.0877 40.2769 31.0877H42.0544C42.5359 31.0877 42.93 30.7024 42.93 30.2208L43 16.947C42.9912 16.6843 42.8774 16.4304 42.676 16.264Z" fill="#639645"/>
</svg>
