<svg width="28" height="27" viewBox="0 0 28 27" fill="none" xmlns="http://www.w3.org/2000/svg">
<g clip-path="url(#clip0)">
<path d="M16.7983 13.5C16.7983 14.9271 15.6414 16.084 14.2143 16.084C12.7872 16.084 11.6303 14.9271 11.6303 13.5C11.6303 12.0729 12.7872 10.916 14.2143 10.916C15.6414 10.916 16.7983 12.0729 16.7983 13.5Z" fill="white"/>
<path d="M20.2573 8.92831C20.1331 8.59171 19.9349 8.28705 19.6775 8.03697C19.4274 7.77948 19.1229 7.58131 18.7861 7.4571C18.513 7.35101 18.1026 7.22474 17.3468 7.19034C16.5293 7.15305 16.2841 7.14502 14.2143 7.14502C12.1443 7.14502 11.8991 7.15285 11.0817 7.19013C10.326 7.22474 9.91541 7.35101 9.64247 7.4571C9.30567 7.58131 9.00101 7.77948 8.75114 8.03697C8.49364 8.28705 8.29548 8.59151 8.17106 8.92831C8.06497 9.20145 7.9387 9.612 7.9043 10.3678C7.86701 11.1852 7.85898 11.4303 7.85898 13.5003C7.85898 15.5702 7.86701 15.8153 7.9043 16.6329C7.9387 17.3887 8.06497 17.799 8.17106 18.0722C8.29548 18.409 8.49344 18.7134 8.75093 18.9635C9.00101 19.221 9.30547 19.4191 9.64227 19.5434C9.91541 19.6497 10.326 19.7759 11.0817 19.8103C11.8991 19.8476 12.1441 19.8554 14.2141 19.8554C16.2843 19.8554 16.5295 19.8476 17.3466 19.8103C18.1024 19.7759 18.513 19.6497 18.7861 19.5434C19.4622 19.2826 19.9965 18.7482 20.2573 18.0722C20.3634 17.799 20.4897 17.3887 20.5243 16.6329C20.5616 15.8153 20.5694 15.5702 20.5694 13.5003C20.5694 11.4303 20.5616 11.1852 20.5243 10.3678C20.4899 9.612 20.3636 9.20145 20.2573 8.92831ZM14.2143 17.4807C12.0157 17.4807 10.2335 15.6987 10.2335 13.5001C10.2335 11.3016 12.0157 9.51951 14.2143 9.51951C16.4127 9.51951 18.1949 11.3016 18.1949 13.5001C18.1949 15.6987 16.4127 17.4807 14.2143 17.4807ZM18.3523 10.2924C17.8385 10.2924 17.422 9.87588 17.422 9.36213C17.422 8.84838 17.8385 8.43186 18.3523 8.43186C18.866 8.43186 19.2826 8.84838 19.2826 9.36213C19.2824 9.87588 18.866 10.2924 18.3523 10.2924Z" fill="white"/>
<path d="M14.2143 0C6.75959 0 0.714294 6.0453 0.714294 13.5C0.714294 20.9547 6.75959 27 14.2143 27C21.669 27 27.7143 20.9547 27.7143 13.5C27.7143 6.0453 21.669 0 14.2143 0ZM21.9195 16.696C21.882 17.5212 21.7508 18.0846 21.5592 18.5777C21.1565 19.619 20.3333 20.4422 19.292 20.8449C18.7991 21.0365 18.2355 21.1675 17.4105 21.2052C16.5838 21.2429 16.3198 21.252 14.2145 21.252C12.109 21.252 11.8452 21.2429 11.0183 21.2052C10.1933 21.1675 9.6297 21.0365 9.13676 20.8449C8.6193 20.6502 8.15087 20.3452 7.7636 19.9507C7.36933 19.5636 7.06425 19.095 6.86959 18.5777C6.67802 18.0848 6.5468 17.5212 6.50931 16.6962C6.4712 15.8693 6.46234 15.6053 6.46234 13.5C6.46234 11.3947 6.4712 11.1307 6.5091 10.304C6.54659 9.4788 6.6776 8.91541 6.86918 8.42226C7.06384 7.90501 7.36913 7.43637 7.7636 7.04931C8.15067 6.65483 8.6193 6.34975 9.13655 6.15509C9.6297 5.96352 10.1931 5.8325 11.0183 5.79481C11.845 5.75711 12.109 5.74805 14.2143 5.74805C16.3195 5.74805 16.5836 5.75711 17.4103 5.79501C18.2355 5.8325 18.7989 5.96352 19.292 6.15488C19.8093 6.34955 20.2779 6.65483 20.6652 7.04931C21.0595 7.43658 21.3647 7.90501 21.5592 8.42226C21.751 8.91541 21.882 9.4788 21.9197 10.304C21.9574 11.1307 21.9662 11.3947 21.9662 13.5C21.9662 15.6053 21.9574 15.8693 21.9195 16.696Z" fill="white"/>
</g>
<defs>
<clipPath id="clip0">
<rect width="27" height="27" fill="white" transform="translate(0.714294)"/>
</clipPath>
</defs>
</svg>
