<svg width="126" height="38" viewBox="0 0 126 38" fill="none" xmlns="http://www.w3.org/2000/svg">
<path d="M34.146 23.4334H33.264V14.9467H34.146V18.62H41.58V14.9467H42.462V23.4334H41.58V19.5067H34.146V23.4334Z" fill="#2A2A2A"/>
<path d="M50.526 23.4333H46.872C44.604 23.4333 43.722 22.6733 43.722 20.52V17.86C43.722 15.7067 44.478 14.82 46.872 14.82H50.526C52.542 14.82 53.55 15.3267 53.55 17.86V20.52C53.676 22.9267 52.794 23.4333 50.526 23.4333ZM50.526 15.7067H46.872C45.234 15.7067 44.604 16.2133 44.604 17.86V20.52C44.604 22.1667 45.234 22.5467 46.872 22.5467H50.526C52.29 22.5467 52.668 22.1667 52.668 20.52V17.7333C52.794 16.0867 52.29 15.7067 50.526 15.7067Z" fill="#2A2A2A"/>
<path d="M54.936 14.9467H61.236C63.252 14.9467 64.134 15.7067 64.134 17.1C64.134 18.3667 63.504 18.8734 63.126 18.8734C63.378 18.8734 64.386 19.38 64.386 20.9C64.386 22.8 63.378 23.4334 61.362 23.4334H54.81V14.9467H54.936ZM55.818 18.4934H61.614C62.748 18.4934 63.378 18.24 63.378 17.1C63.378 16.2134 62.874 15.7067 61.614 15.7067H55.818V18.4934ZM55.818 22.5467H61.74C62.874 22.5467 63.504 22.04 63.504 20.9C63.504 19.76 62.874 19.38 61.74 19.38H55.818V22.5467Z" fill="#2A2A2A"/>
<path d="M75.096 14.9467V23.4334H74.214V15.8334H66.78V23.4334H65.898V14.9467H75.096Z" fill="#2A2A2A"/>
<path d="M77.364 23.4334H76.482V14.9467H82.152C84.294 14.9467 85.176 15.7067 85.176 17.6067C85.176 19.5067 84.294 20.0134 82.278 20.0134H77.49V23.4334H77.364ZM77.364 19H82.53C83.79 19 84.294 18.7467 84.294 17.3534C84.294 16.0867 83.79 15.7067 82.53 15.7067H77.49V19H77.364Z" fill="#2A2A2A"/>
<path d="M93.114 23.4333H89.46C87.192 23.4333 86.31 22.6733 86.31 20.52V17.86C86.31 15.7067 87.066 14.82 89.46 14.82H93.114C95.13 14.82 96.138 15.3267 96.138 17.86V20.52C96.138 22.9267 95.382 23.4333 93.114 23.4333ZM93.114 15.7067H89.46C87.822 15.7067 87.192 16.2133 87.192 17.86V20.52C87.192 22.1667 87.822 22.5467 89.46 22.5467H93.114C94.878 22.5467 95.256 22.1667 95.256 20.52V17.7333C95.256 16.0867 94.752 15.7067 93.114 15.7067Z" fill="#2A2A2A"/>
<path d="M97.398 14.9467H104.832V15.8334H98.28V18.62H104.706V19.5067H98.28V22.6734H104.832V23.56H97.398V14.9467Z" fill="#2A2A2A"/>
<path d="M107.226 23.4334H106.344V14.9467H107.226V18.62H108.612L113.904 14.9467H115.416L109.494 19L115.542 23.4334H114.03L108.612 19.38H107.226V23.4334Z" fill="#2A2A2A"/>
<path d="M125.118 14.9467V15.8334H120.96V23.4334H120.078V15.8334H115.92V14.9467H125.118Z" fill="#2A2A2A"/>
<path d="M35.532 26.4733V29.1333H35.28V26.7267H32.886V29.1333H32.634V26.4733H35.532Z" fill="#2A2A2A"/>
<path d="M36.288 29.1333H36.036V26.4733H37.8C38.43 26.4733 38.682 26.7267 38.682 27.2333C38.682 27.8667 38.43 27.9933 37.8 27.9933H36.288V29.1333ZM36.288 27.74H37.926C38.304 27.74 38.43 27.6133 38.43 27.2333C38.43 26.8533 38.304 26.7267 37.8 26.7267H36.162V27.74H36.288Z" fill="#2A2A2A"/>
<path d="M41.202 29.1333H40.068C39.312 29.1333 39.06 28.88 39.06 28.2467V27.36C39.06 26.7267 39.312 26.4733 40.068 26.4733H41.202C41.832 26.4733 42.21 26.6 42.21 27.36V28.2467C42.084 29.0067 41.832 29.1333 41.202 29.1333ZM41.202 26.7267H40.068C39.564 26.7267 39.312 26.8533 39.312 27.36V28.2467C39.312 28.7533 39.564 28.88 40.068 28.88H41.202C41.706 28.88 41.832 28.7533 41.832 28.2467V27.36C41.832 26.8533 41.706 26.7267 41.202 26.7267Z" fill="#2A2A2A"/>
<path d="M42.588 26.4733H44.982V26.7267H42.84V27.6133H44.856V27.8667H42.84V28.88H44.856V29.1333H42.462V26.4733H42.588Z" fill="#2A2A2A"/>
<path d="M45.612 29.1333H45.36V26.4733H45.612V27.6133H46.116L47.754 26.4733H48.258L46.368 27.74L48.258 29.1333H47.754L45.99 27.8667H45.486V29.1333H45.612Z" fill="#2A2A2A"/>
<path d="M51.156 26.4733V26.7267H49.896V29.1333H49.644V26.7267H48.384V26.4733H51.156Z" fill="#2A2A2A"/>
<path d="M51.786 28.88L53.928 26.4733H54.432V29.1333H54.18V26.7267H54.054L51.912 29.1333H51.408V26.4733H51.66V28.88H51.786Z" fill="#2A2A2A"/>
<path d="M55.188 29.1333H54.936V26.4733H56.7C57.33 26.4733 57.582 26.7267 57.582 27.2333C57.582 27.8667 57.33 27.9933 56.7 27.9933H55.188V29.1333ZM55.188 27.74H56.826C57.204 27.74 57.33 27.6133 57.33 27.2333C57.33 26.8533 57.204 26.7267 56.7 26.7267H55.062V27.74H55.188Z" fill="#2A2A2A"/>
<path d="M60.102 29.1333H58.968C58.212 29.1333 57.96 28.88 57.96 28.2467V27.36C57.96 26.7267 58.212 26.4733 58.968 26.4733H60.102C60.732 26.4733 61.11 26.6 61.11 27.36V28.2467C60.984 29.0067 60.732 29.1333 60.102 29.1333ZM60.102 26.7267H58.968C58.464 26.7267 58.212 26.8533 58.212 27.36V28.2467C58.212 28.7533 58.464 28.88 58.968 28.88H60.102C60.606 28.88 60.732 28.7533 60.732 28.2467V27.36C60.732 26.8533 60.606 26.7267 60.102 26.7267Z" fill="#2A2A2A"/>
<path d="M61.488 26.4733H63.504C64.134 26.4733 64.386 26.7267 64.386 27.1067C64.386 27.4867 64.134 27.6133 64.008 27.74C64.134 27.74 64.386 27.8667 64.386 28.3733C64.386 29.0067 64.008 29.1333 63.504 29.1333H61.488V26.4733ZM61.74 27.6133H63.504C63.882 27.6133 64.008 27.4867 64.008 27.2333C64.008 26.98 63.882 26.7267 63.504 26.7267H61.74V27.6133ZM61.74 28.88H63.63C64.008 28.88 64.134 28.7533 64.134 28.3733C64.134 27.9933 63.882 27.8667 63.504 27.8667H61.74V28.88Z" fill="#2A2A2A"/>
<path d="M64.638 29.1333L66.024 26.4733H66.402L67.788 29.1333H67.41L67.032 28.5H65.142L64.89 29.1333H64.638ZM67.032 28.2467L66.276 26.7267L65.52 28.2467H67.032Z" fill="#2A2A2A"/>
<path d="M68.292 29.1333H68.04V26.4733H68.292V27.6133H70.686V26.4733H70.938V29.1333H70.686V27.8667H68.292V29.1333Z" fill="#2A2A2A"/>
<path d="M71.694 28.88L73.836 26.4733H74.34V29.1333H74.088V26.7267H73.962L71.82 29.1333H71.316V26.4733H71.568V28.88H71.694Z" fill="#2A2A2A"/>
<path d="M74.718 26.4733H77.112V26.7267H75.096V27.6133H77.112V27.8667H75.096V28.88H77.112V29.1333H74.718V26.4733Z" fill="#2A2A2A"/>
<path d="M79.002 28.88L81.144 26.4733H81.648V29.1333H81.396V26.7267H81.27L79.254 29.1333H78.75V26.4733H79.002V28.88Z" fill="#2A2A2A"/>
<path d="M86.31 28.3733C86.31 28.88 86.058 29.1333 85.302 29.1333H84.168C83.412 29.1333 83.16 28.88 83.16 28.2467V27.4867C83.16 26.7267 83.412 26.4733 84.168 26.4733H85.302C85.932 26.4733 86.31 26.7267 86.31 27.2333H86.058C86.058 26.98 85.932 26.7267 85.428 26.7267H84.294C83.79 26.7267 83.538 26.8533 83.538 27.4867V28.2467C83.538 28.7533 83.664 28.88 84.294 28.88H85.428C85.932 28.88 86.058 28.7533 86.058 28.3733H86.31Z" fill="#2A2A2A"/>
<path d="M89.46 26.4733V26.7267H88.2V29.1333H87.948V26.7267H86.688V26.4733H89.46Z" fill="#2A2A2A"/>
<path d="M90.09 29.1333H89.838V26.4733H91.602C92.232 26.4733 92.484 26.7267 92.484 27.2333C92.484 27.8667 92.232 27.9933 91.602 27.9933H90.09V29.1333ZM90.09 27.74H91.728C92.106 27.74 92.232 27.6133 92.232 27.2333C92.232 26.8533 92.106 26.7267 91.602 26.7267H89.964V27.74H90.09Z" fill="#2A2A2A"/>
<path d="M95.004 29.1333H93.87C93.114 29.1333 92.862 28.88 92.862 28.2467V27.36C92.862 26.7267 93.114 26.4733 93.87 26.4733H95.004C95.634 26.4733 96.012 26.6 96.012 27.36V28.2467C96.012 29.0067 95.76 29.1333 95.004 29.1333ZM95.004 26.7267H93.87C93.366 26.7267 93.114 26.8533 93.114 27.36V28.2467C93.114 28.7533 93.366 28.88 93.87 28.88H95.004C95.508 28.88 95.634 28.7533 95.634 28.2467V27.36C95.634 26.8533 95.508 26.7267 95.004 26.7267Z" fill="#2A2A2A"/>
<path d="M96.642 28.88L98.784 26.4733H99.288V29.1333H99.036V26.7267H98.91L96.768 29.1333H96.264V26.4733H96.516V28.88H96.642Z" fill="#2A2A2A"/>
<path d="M102.438 26.4733V26.7267H101.178V29.1333H100.8V26.7267H99.54V26.4733H102.438Z" fill="#2A2A2A"/>
<path d="M102.69 26.4733H105.084V26.7267H103.068V27.6133H105.084V27.8667H103.068V28.88H105.084V29.1333H102.69V26.4733Z" fill="#2A2A2A"/>
<path d="M106.092 26.7267V28.5C106.092 29.0067 105.84 29.1333 105.462 29.1333H105.336V28.88H105.462C105.588 28.88 105.714 28.7533 105.714 28.5V26.4733H108.36V29.1333H108.108V26.7267H106.092Z" fill="#2A2A2A"/>
<path d="M109.242 27.6133H110.754C111.384 27.6133 111.636 27.8667 111.636 28.3733C111.636 28.88 111.384 29.1333 110.754 29.1333H108.864V26.4733H109.116V27.6133H109.242ZM109.242 28.88H110.88C111.258 28.88 111.384 28.7533 111.384 28.3733C111.384 27.9933 111.258 27.8667 110.754 27.8667H109.116V28.88H109.242Z" fill="#2A2A2A"/>
<path d="M115.038 28.3733C115.038 28.88 114.786 29.1333 114.03 29.1333H112.896C112.14 29.1333 111.888 28.88 111.888 28.2467V27.4867C111.888 26.7267 112.14 26.4733 112.896 26.4733H114.03C114.66 26.4733 115.038 26.7267 115.038 27.2333H114.786C114.786 26.98 114.66 26.7267 114.156 26.7267H113.022C112.518 26.7267 112.266 26.8533 112.266 27.4867V28.2467C112.266 28.7533 112.392 28.88 113.022 28.88H114.156C114.66 28.88 114.786 28.7533 114.786 28.3733H115.038Z" fill="#2A2A2A"/>
<path d="M118.188 26.4733V26.7267H116.928V29.1333H116.676V26.7267H115.416V26.4733H118.188Z" fill="#2A2A2A"/>
<path d="M118.566 26.4733H120.582C121.212 26.4733 121.464 26.7267 121.464 27.1067C121.464 27.4867 121.212 27.6133 121.086 27.74C121.212 27.74 121.464 27.8667 121.464 28.3733C121.464 29.0067 121.086 29.1333 120.582 29.1333H118.566V26.4733ZM118.818 27.6133H120.582C120.96 27.6133 121.086 27.4867 121.086 27.2333C121.086 26.98 120.96 26.7267 120.582 26.7267H118.818V27.6133ZM118.818 28.88H120.708C121.086 28.88 121.212 28.7533 121.212 28.3733C121.212 27.9933 120.96 27.8667 120.582 27.8667H118.692V28.88H118.818Z" fill="#2A2A2A"/>
<path d="M123.984 29.1333H122.85C122.094 29.1333 121.842 28.88 121.842 28.2467V27.36C121.842 26.7267 122.094 26.4733 122.85 26.4733H123.984C124.614 26.4733 124.992 26.6 124.992 27.36V28.2467C124.992 29.0067 124.74 29.1333 123.984 29.1333ZM123.984 26.7267H122.85C122.346 26.7267 122.094 26.8533 122.094 27.36V28.2467C122.094 28.7533 122.346 28.88 122.85 28.88H123.984C124.488 28.88 124.614 28.7533 124.614 28.2467V27.36C124.74 26.8533 124.488 26.7267 123.984 26.7267Z" fill="#2A2A2A"/>
<path d="M8.06401 0.253326H5.54401V9.11999L8.06401 6.83999V0.253326Z" fill="#72934A"/>
<path d="M22.932 31.0333H20.286V37.7467H22.932V31.0333Z" fill="#72934A"/>
<path d="M23.688 10.64V14.1867L25.074 15.3267V27.4867H8.946V30.1466H27.72V14.06L23.688 10.64Z" fill="#405831"/>
<path d="M8.946 10.64L14.364 5.95332L19.404 10.3867V6.96666L14.364 2.53333L8.064 7.85332L5.544 10.1333L0.882004 14.06V30.1467H4.662V27.4867H3.528V15.3267L4.662 14.3133L4.914 14.06L7.56 11.78L8.946 10.64Z" fill="#405831"/>
<path d="M20.286 26.7267H22.932V13.4267V9.87999V5.82666H20.286V7.59999V11.1467V19H8.06401V12.4133L5.54401 14.6933V27.4867V30.1467V33.44H8.06401V30.1467V27.4867V21.66H20.286V26.7267Z" fill="#72934A"/>
</svg>
