<svg width="47" height="47" viewBox="0 0 47 47" fill="none" xmlns="http://www.w3.org/2000/svg">
<g clip-path="url(#clip0)">
<path d="M14.2004 32.4958L14.1736 32.4691C13.817 32.1143 13.2402 32.1156 12.8852 32.4722C12.5302 32.8289 12.5316 33.4057 12.8883 33.7606L12.9181 33.7902C13.0957 33.9663 13.3275 34.0541 13.5592 34.0541C13.7938 34.0541 14.0284 33.964 14.2065 33.7842C14.5606 33.4267 14.5579 32.85 14.2004 32.4958Z" fill="#639645"/>
<path d="M33.7591 12.8867C28.0046 7.13217 18.6412 7.13217 12.8867 12.8867C8.17582 17.5975 7.20492 24.9152 10.5255 30.682C10.7766 31.118 11.3337 31.2679 11.7696 31.0169C12.2057 30.7658 12.3556 30.2088 12.1045 29.7728C9.19419 24.7185 10.0457 18.3046 14.1751 14.1751C19.2192 9.131 27.4266 9.131 32.4706 14.1751C37.5147 19.2192 37.5147 27.4265 32.4706 32.4706C28.3161 36.6252 21.8753 37.4611 16.808 34.5035C16.3733 34.2497 15.8155 34.3964 15.5619 34.8311C15.3082 35.2656 15.4549 35.8236 15.8895 36.0772C18.2016 37.4267 20.7638 38.084 23.31 38.084C27.1308 38.084 30.9149 36.6032 33.7591 33.759C39.5135 28.0045 39.5135 18.6412 33.7591 12.8867Z" fill="#639645"/>
<path d="M46.6424 19.3198C46.6422 18.8719 46.3163 18.4904 45.8739 18.4204L42.511 17.8875L40.7269 13.5849L42.726 10.8286C42.989 10.466 42.9494 9.96593 42.6325 9.64935L36.9821 4.00277C36.6651 3.68609 36.1651 3.64674 35.8027 3.91012L33.049 5.9105L28.7434 4.12895L28.2083 0.767739C28.1378 0.325517 27.7564 0 27.3085 0C27.3084 0 27.3082 0 27.3082 0L19.3198 0.00327977C18.8719 0.00346198 18.4905 0.329343 18.4204 0.771747L17.8876 4.13469L13.585 5.91879L10.8287 3.91969C10.4662 3.65667 9.96612 3.6963 9.64944 4.01316L4.00286 9.66356C3.68618 9.98051 3.64692 10.4806 3.91021 10.843L5.91059 13.5966L4.12904 17.9022L0.76783 18.4374C0.325426 18.5078 -0.000182133 18.8895 7.64346e-08 19.3374L0.00327984 27.3256C0.00346205 27.7736 0.329343 28.1551 0.771747 28.2251L4.13469 28.758L5.91879 33.0606L3.91969 35.8169C3.65667 36.1795 3.6963 36.6795 4.01316 36.9961L9.66356 42.6427C9.98051 42.9594 10.4807 42.9987 10.843 42.7354L13.5966 40.735L17.9022 42.5165L18.4374 45.8777C18.5078 46.3201 18.8892 46.6456 19.337 46.6456C19.3371 46.6456 19.3373 46.6456 19.3374 46.6456L27.3256 46.6422C27.7736 46.642 28.155 46.3161 28.2251 45.8737L28.758 42.5108L33.0606 40.7267L35.8169 42.7258C36.1795 42.9889 36.6795 42.9492 36.9961 42.6323L42.6427 36.9819C42.9594 36.665 42.9986 36.1649 42.7354 35.8025L40.735 33.0488L42.5165 28.7432L45.8777 28.2081C46.3201 28.1377 46.6458 27.756 46.6456 27.3081L46.6424 19.3198ZM41.7266 27.024C41.4136 27.0738 41.1491 27.2826 41.028 27.5754L38.8565 32.8234C38.7353 33.1161 38.775 33.4508 38.9613 33.7072L40.8042 36.2441L36.2572 40.7942L33.7176 38.9523C33.4613 38.7663 33.1266 38.727 32.8337 38.8482L27.589 41.023C27.2964 41.1444 27.0878 41.4091 27.0382 41.722L26.5473 44.8204L20.1146 44.8231L19.6216 41.7265C19.5717 41.4135 19.363 41.149 19.0702 41.0279L13.8222 38.8564C13.7101 38.8099 13.5917 38.7872 13.474 38.7872C13.2845 38.7872 13.0966 38.8463 12.9385 38.9612L10.4016 40.8041L5.85147 36.2571L7.69333 33.7175C7.87937 33.4611 7.91872 33.1264 7.79737 32.8337L5.62261 27.5889C5.50126 27.2963 5.2366 27.0877 4.92366 27.0381L1.82519 26.5472L1.82255 20.1145L4.91919 19.6215C5.23214 19.5716 5.49662 19.3629 5.61778 19.0701L7.78926 13.8221C7.91043 13.5294 7.87071 13.1947 7.68449 12.9383L5.84154 10.4014L10.3886 5.85129L12.9281 7.69315C13.1847 7.87918 13.5193 7.91872 13.812 7.79728L19.0567 5.62243C19.3493 5.50108 19.558 5.23633 19.6075 4.92348L20.0984 1.82501L26.5311 1.82237L27.0242 4.91901C27.074 5.23196 27.2827 5.49643 27.5755 5.6176L32.8235 7.78908C33.1163 7.91007 33.451 7.87053 33.7073 7.68431L36.2442 5.84135L40.7944 10.3884L38.9525 12.9279C38.7665 13.1844 38.7271 13.5191 38.8485 13.8118L41.0232 19.0565C41.1446 19.3492 41.4092 19.5578 41.7222 19.6074L44.8207 20.0983L44.8233 26.5309L41.7266 27.024Z" fill="#639645"/>
<path d="M31.6226 24.4578C30.4832 23.4225 28.9519 22.9729 27.4403 23.2082L23.4392 19.2071C23.6826 17.6223 23.1599 15.9913 22.0143 14.8456C20.5779 13.4092 18.4304 12.9693 16.5433 13.7246C16.2589 13.8384 16.0508 14.0874 15.9893 14.3873C15.9278 14.6873 16.021 14.9981 16.2376 15.2147L17.5586 16.5357C17.8382 16.8153 17.8382 17.2702 17.5586 17.5499C17.279 17.8296 16.824 17.8296 16.5444 17.5499L15.2188 16.2243C15.0027 16.0082 14.6929 15.9147 14.3933 15.9757C14.0938 16.0364 13.8447 16.2433 13.7301 16.5266C12.9358 18.4882 13.4555 20.7632 15.0234 22.1876C16.164 23.2241 17.6965 23.6736 19.2097 23.4368L23.2071 27.4342C22.9622 29.0204 23.4846 30.6529 24.6315 31.7999C25.6021 32.7704 26.8952 33.2859 28.214 33.2858C28.8537 33.2858 29.4996 33.1644 30.1173 32.9149C30.4007 32.8005 30.6079 32.5514 30.6688 32.2519C30.7298 31.9523 30.6365 31.6422 30.4203 31.426L29.1053 30.1109C28.8257 29.8313 28.8257 29.3763 29.1053 29.0966C29.3849 28.8169 29.8399 28.8169 30.1196 29.0966L31.4319 30.409C31.6483 30.6254 31.959 30.7188 32.2589 30.6573C32.5588 30.5959 32.8077 30.3881 32.9217 30.1041C33.7072 28.1464 33.1852 25.8774 31.6226 24.4578ZM31.4079 27.8083C30.4178 26.8183 28.8068 26.8182 27.8167 27.8083C26.8267 28.7984 26.8267 30.4094 27.8167 31.3994L27.8612 31.4439C27.1418 31.365 26.4544 31.046 25.9198 30.5115C25.1025 29.6942 24.7803 28.4915 25.079 27.3727C25.1629 27.0585 25.073 26.7235 24.8431 26.4936L20.1501 21.8006C19.977 21.6275 19.7443 21.5338 19.5058 21.5338C19.428 21.5338 19.3495 21.5437 19.2723 21.5642C18.1933 21.8507 17.0629 21.5794 16.2484 20.8393C15.6501 20.2955 15.2898 19.5586 15.2035 18.786L15.2559 18.8384C16.246 19.8285 17.8569 19.8286 18.847 18.8384C19.8371 17.8483 19.8371 16.2374 18.847 15.2474L18.8039 15.2043C19.5164 15.2868 20.1966 15.6049 20.7258 16.1342C21.5422 16.9506 21.8646 18.1521 21.5673 19.27C21.4838 19.5839 21.5738 19.9187 21.8035 20.1484L26.4993 24.8441C26.7287 25.0735 27.0625 25.1636 27.3762 25.0807C28.4541 24.7959 29.5835 25.0673 30.3973 25.8065C30.9901 26.3451 31.3494 27.0744 31.4396 27.84L31.4079 27.8083Z" fill="#639645"/>
<path d="M31.6446 16.8169C30.1431 14.8988 28.0145 13.5497 25.6508 13.0178C25.1601 12.9073 24.6724 13.2157 24.562 13.7066C24.4516 14.1976 24.7599 14.685 25.2509 14.7954C27.2057 15.2353 28.9668 16.3521 30.2099 17.9401C30.3896 18.1697 30.6574 18.2896 30.9279 18.2896C31.1243 18.2896 31.3222 18.2263 31.4888 18.0959C31.885 17.7858 31.9548 17.2131 31.6446 16.8169Z" fill="#639645"/>
<path d="M33.3851 20.1021L33.3718 20.0609C33.2172 19.5821 32.7038 19.3195 32.2249 19.4739C31.746 19.6286 31.4832 20.142 31.6379 20.6209L31.6494 20.6566C31.7731 21.0437 32.1314 21.2907 32.517 21.2907C32.6089 21.2907 32.7023 21.2766 32.7944 21.2472C33.2737 21.0941 33.5382 20.5814 33.3851 20.1021Z" fill="#639645"/>
</g>
<defs>
<clipPath id="clip0">
<rect width="46.6456" height="46.6456" fill="white"/>
</clipPath>
</defs>
</svg>
