<svg width="44" height="44" viewBox="0 0 44 44" fill="none" xmlns="http://www.w3.org/2000/svg">
<g clip-path="url(#clip0)">
<path d="M42.3215 17.5987H36.9259C36.4603 17.5987 36.0829 17.9763 36.0829 18.4418V22.6992C36.0829 23.1648 36.4603 23.5423 36.9259 23.5423C37.3916 23.5423 37.769 23.1648 37.769 22.6992V19.2849H41.4784V41.4784H39.6237H37.769V29.0222C37.769 28.5566 37.3916 28.1791 36.9259 28.1791C36.4603 28.1791 36.0829 28.5566 36.0829 29.0222V41.4784H34.3968V24.0271C34.3968 23.5616 34.0193 23.1841 33.5537 23.1841H28.1581C27.6925 23.1841 27.3151 23.5616 27.3151 24.0271V41.4784H25.629V29.9286C25.629 29.463 25.2515 29.0855 24.7859 29.0855H19.3903C18.9247 29.0855 18.5473 29.463 18.5473 29.9286V41.4784H16.8612V34.7656C16.8612 34.3001 16.4837 33.9225 16.0181 33.9225H10.6225C10.1569 33.9225 9.77947 34.3001 9.77947 34.7656V41.4784H2.52917C2.06431 41.4784 1.68612 41.1002 1.68612 40.6354V2.52917C1.68612 2.06431 2.06431 1.68612 2.52917 1.68612H24.278V7.25055C24.278 8.64514 25.4125 9.77972 26.8071 9.77972H32.3713V20.1491C32.3713 20.6146 32.7487 20.9921 33.2144 20.9921C33.68 20.9921 34.0574 20.6146 34.0574 20.1491V8.93667C34.0574 8.71309 33.9686 8.4987 33.8105 8.34054L25.7171 0.246932C25.559 0.0888583 25.3446 0 25.121 0H2.52917C1.13459 0 0 1.13459 0 2.52917V40.6354C0 42.03 1.13459 43.1646 2.52917 43.1646H42.3215C42.7871 43.1646 43.1646 42.787 43.1646 42.3215V18.4418C43.1646 17.9763 42.7871 17.5987 42.3215 17.5987ZM25.9641 2.87845L31.1791 8.09361H26.8071C26.3422 8.09361 25.9641 7.71541 25.9641 7.25055V2.87845ZM15.175 41.4784H11.4656V35.6087H15.175V41.4784ZM23.9428 41.4784H20.2334V30.7716H23.9428V41.4784ZM32.7106 41.4784H29.0012V24.8702H32.7106V41.4784Z" fill="#639645"/>
<path d="M37.522 25.108C37.3652 24.9504 37.1477 24.861 36.9259 24.861C36.7042 24.861 36.4867 24.9504 36.3299 25.108C36.1731 25.2648 36.0829 25.4823 36.0829 25.704C36.0829 25.9257 36.1731 26.1433 36.3299 26.3001C36.4867 26.4568 36.7042 26.5471 36.9259 26.5471C37.1477 26.5471 37.3652 26.4569 37.522 26.3001C37.6788 26.1433 37.769 25.9257 37.769 25.704C37.769 25.4823 37.6788 25.2648 37.522 25.108Z" fill="#639645"/>
<path d="M12.2729 4.61401C11.8073 4.61401 11.4299 4.99153 11.4299 5.45707V6.97365C7.54921 7.39492 4.51892 10.6913 4.51892 14.6821C4.51892 18.9577 7.99737 22.4362 12.2729 22.4362C16.2638 22.4362 19.5602 19.406 19.9814 15.5252H21.4979C21.9635 15.5252 22.341 15.1477 22.341 14.6821C22.341 9.13053 17.8245 4.61401 12.2729 4.61401ZM12.2729 20.75C8.9271 20.75 6.20504 18.0279 6.20504 14.6821C6.20504 11.6224 8.48171 9.08424 11.4299 8.67258V14.6821C11.4299 15.1476 11.8073 15.5251 12.2729 15.5251H18.2824C17.8708 18.4733 15.3326 20.75 12.2729 20.75ZM13.116 13.8391V13.839V6.3422C17.0659 6.7386 20.2164 9.88919 20.6128 13.8391H13.116Z" fill="#639645"/>
<path d="M21.498 24.807H5.39555C4.92993 24.807 4.55249 25.1845 4.55249 25.6501C4.55249 26.1156 4.92993 26.4931 5.39555 26.4931H21.498C21.9636 26.4931 22.341 26.1156 22.341 25.6501C22.341 25.1845 21.9636 24.807 21.498 24.807Z" fill="#639645"/>
<path d="M10.7911 28.8748H5.39555C4.92993 28.8748 4.55249 29.2523 4.55249 29.7178C4.55249 30.1833 4.92993 30.5609 5.39555 30.5609H10.7911C11.2567 30.5609 11.6342 30.1833 11.6342 29.7178C11.6342 29.2523 11.2567 28.8748 10.7911 28.8748Z" fill="#639645"/>
<path d="M15.6093 29.1218C15.4525 28.965 15.2349 28.8748 15.0132 28.8748C14.7907 28.8748 14.574 28.9649 14.4172 29.1218C14.2595 29.2786 14.1702 29.4961 14.1702 29.7178C14.1702 29.9395 14.2595 30.157 14.4172 30.3138C14.574 30.4706 14.7907 30.5609 15.0132 30.5609C15.2349 30.5609 15.4525 30.4707 15.6093 30.3138C15.7661 30.157 15.8563 29.9395 15.8563 29.7178C15.8563 29.4961 15.7661 29.2786 15.6093 29.1218Z" fill="#639645"/>
</g>
<defs>
<clipPath id="clip0">
<rect width="43.1646" height="43.1646" fill="white"/>
</clipPath>
</defs>
</svg>
