<svg width="54" height="54" viewBox="0 0 54 54" fill="none" xmlns="http://www.w3.org/2000/svg">
<g clip-path="url(#clip0)">
<path d="M51.813 38.44H51.7551V33.7508C51.7551 22.048 43.5793 11.9049 32.2243 9.39088C32.164 8.7858 31.905 8.22292 31.4746 7.77742C30.9572 7.24197 30.2623 6.94702 29.5177 6.94702H24.0899C23.3453 6.94702 22.6504 7.24197 22.133 7.77742C21.7027 8.22292 21.4436 8.7858 21.3833 9.39088C10.0283 11.9049 1.8525 22.048 1.8525 33.7508V38.44H1.7946C0.804951 38.44 0 39.2451 0 40.2346V41.4155C0 42.1968 0.4943 42.8834 1.22994 43.1239C8.20531 45.4046 17.2877 46.6606 26.8038 46.6606C36.3199 46.6606 45.4023 45.4046 52.3777 43.1239C53.1133 42.8834 53.6076 42.1968 53.6076 41.4155V40.2346C53.6076 39.2451 52.8025 38.44 51.813 38.44ZM23.3821 8.98411C23.5692 8.79052 23.8206 8.68372 24.0899 8.68372H29.5176C29.7869 8.68372 30.0383 8.79031 30.2254 8.98411C30.4125 9.17781 30.5105 9.43276 30.5011 9.70185L29.7027 32.8584C29.6843 33.3914 29.2523 33.8088 28.7191 33.8088H24.8886C24.3554 33.8088 23.9234 33.3914 23.905 32.8586L23.1065 9.70195C23.0971 9.43266 23.195 9.17781 23.3821 8.98411ZM51.8709 41.4156C51.8709 41.4389 51.8607 41.4658 51.838 41.4732C45.0322 43.6984 36.1415 44.9239 26.8038 44.9239C17.4661 44.9239 8.57543 43.6984 1.76968 41.473C1.74696 41.4656 1.7368 41.4388 1.7368 41.4155V40.2346C1.7368 40.2027 1.76277 40.1767 1.7947 40.1767H35.1402C35.6197 40.1767 36.0086 39.788 36.0086 39.3083C36.0086 38.8288 35.6198 38.4399 35.1402 38.4399H3.5893V33.7508C3.5893 25.0234 8.47649 17.2288 15.8558 13.274L17.74 26.4643C17.802 26.8974 18.1734 27.21 18.5987 27.21C18.6395 27.21 18.6809 27.207 18.7226 27.2012C19.1974 27.1333 19.5273 26.6935 19.4595 26.2187L17.4963 12.4757C18.7465 11.9283 20.0576 11.4876 21.4192 11.1647L22.1694 32.9185C22.2201 34.3916 23.4146 35.5456 24.8887 35.5456H28.7192C30.1932 35.5456 31.3877 34.3916 31.4385 32.9185L32.1887 11.1649C33.5502 11.4879 34.8614 11.9286 36.1116 12.4758L34.1485 26.2188C34.0807 26.6937 34.4106 27.1334 34.8854 27.2013C34.927 27.2071 34.9684 27.2101 35.0092 27.2101C35.4344 27.2101 35.8059 26.8974 35.8679 26.4644L37.7521 13.2741C45.1314 17.2288 50.0186 25.0233 50.0186 33.7508V38.44H44.4029C43.9234 38.44 43.5345 38.8288 43.5345 39.3084C43.5345 39.788 43.9233 40.1768 44.4029 40.1768H51.8132C51.8451 40.1768 51.8711 40.2028 51.8711 40.2347V41.4156H51.8709Z" fill="#639645"/>
<path d="M40.6979 38.4399H38.8453C38.3658 38.4399 37.9769 38.8287 37.9769 39.3083C37.9769 39.7879 38.3657 40.1768 38.8453 40.1768H40.6979C41.1775 40.1768 41.5663 39.788 41.5663 39.3083C41.5663 38.8287 41.1776 38.4399 40.6979 38.4399Z" fill="#639645"/>
<path d="M20.2535 31.7754L19.9887 29.9224C19.9209 29.4476 19.4813 29.1176 19.0063 29.1855C18.5315 29.2533 18.2016 29.6932 18.2694 30.1679L18.5341 32.0209C18.5961 32.4541 18.9675 32.7666 19.3928 32.7666C19.4336 32.7666 19.4749 32.7637 19.5166 32.7578C19.9914 32.69 20.3214 32.2501 20.2535 31.7754Z" fill="#639645"/>
<path d="M34.6014 29.1856C34.1266 29.1177 33.6868 29.4478 33.619 29.9225L33.3543 31.7755C33.2865 32.2504 33.6165 32.6901 34.0912 32.758C34.1327 32.7638 34.1742 32.7668 34.215 32.7668C34.6402 32.7668 35.0117 32.4541 35.0737 32.0211L35.3384 30.168C35.406 29.6933 35.0761 29.2535 34.6014 29.1856Z" fill="#639645"/>
</g>
<defs>
<clipPath id="clip0">
<rect width="53.6076" height="53.6076" fill="white"/>
</clipPath>
</defs>
</svg>
