<svg width="47" height="47" viewBox="0 0 47 47" fill="none" xmlns="http://www.w3.org/2000/svg">
<g clip-path="url(#clip0)">
<path d="M41.2736 32.9182C41.0178 32.8121 40.7233 32.8707 40.5274 33.0665L33.0454 40.5486C32.8496 40.7444 32.791 41.0389 32.897 41.2947C33.0029 41.5506 33.2527 41.7173 33.5296 41.7173H41.0116C41.3898 41.7173 41.6963 41.4109 41.6963 41.0327V33.5506C41.6962 33.2737 41.5294 33.0241 41.2736 32.9182ZM35.1822 40.3481L40.3268 35.2035V40.3481H35.1822Z" fill="#639645"/>
<path d="M46.223 21.9443C45.9672 21.8382 45.6728 21.8968 45.4769 22.0926L43.4264 24.1431V10.2012C43.4264 9.82304 43.1198 9.51657 42.7417 9.51657H37.4812L39.3908 7.60701C39.3911 7.60674 39.3914 7.60637 39.3916 7.6061L41.2316 5.76615C41.6258 5.37194 41.8429 4.84754 41.8429 4.28998C41.8429 3.73241 41.6258 3.2082 41.2316 2.8138L39.1039 0.686142C38.7097 0.291932 38.1853 0.0748291 37.6277 0.0748291C37.0702 0.0748291 36.5459 0.291932 36.1516 0.686142L34.3107 2.52701L32.0863 4.75142L27.3212 9.51648H6.0694V2.74329C6.0694 2.36511 5.76284 2.05864 5.38475 2.05864C2.41564 2.05882 0 4.47428 0 7.44357V36.523C0 36.5735 0.00583071 36.6227 0.0162167 36.6701C0.110783 37.93 0.655864 39.1006 1.56682 39.9892C2.54055 40.9389 3.82595 41.4619 5.18632 41.4619H26.1075L22.1673 45.4021C21.9715 45.598 21.9129 45.8924 22.0188 46.1483C22.1248 46.4041 22.3745 46.5709 22.6514 46.5709H45.961C46.3391 46.5709 46.6457 46.2644 46.6457 45.8862V22.5768C46.6457 22.2999 46.4788 22.0502 46.223 21.9443ZM37.12 1.6545C37.3999 1.37444 37.8559 1.37444 38.1357 1.6545L40.2635 3.78225C40.5436 4.06221 40.5436 4.51801 40.2635 4.79807L38.9069 6.1548L35.7632 3.01123L37.12 1.6545ZM34.7949 3.97949L37.9385 7.12297L36.6823 8.37922L33.5389 5.23573L34.7949 3.97949ZM45.2765 30.2699H44.0134C43.6352 30.2699 43.3287 30.5764 43.3287 30.9545C43.3287 31.3327 43.6352 31.6392 44.0134 31.6392H45.2765V33.7023H44.0134C43.6352 33.7023 43.3287 34.0088 43.3287 34.387C43.3287 34.7652 43.6352 35.0717 44.0134 35.0717H45.2765V37.1347H44.0134C43.6352 37.1347 43.3287 37.4412 43.3287 37.8194C43.3287 38.1976 43.6352 38.504 44.0134 38.504H45.2765V40.5672H44.0134C43.6352 40.5672 43.3287 40.8738 43.3287 41.2518C43.3287 41.63 43.6352 41.9365 44.0134 41.9365H45.2765V45.2019H24.3042L31.2198 38.2864C31.4872 38.0189 31.4872 37.5855 31.2198 37.3181C31.1891 37.2874 31.1561 37.2608 31.1216 37.2371C30.855 37.0545 30.4882 37.0814 30.2514 37.3181L27.4768 40.0928H5.18641C3.10995 40.0928 1.43836 38.4717 1.37259 36.399C1.3765 36.2689 1.38662 36.1399 1.40283 36.0123C1.40292 36.0116 1.40301 36.0109 1.40311 36.0101C1.41076 35.9495 1.41996 35.8892 1.43044 35.8293C1.43162 35.8224 1.4329 35.8156 1.43408 35.8088C1.44365 35.7553 1.4544 35.7021 1.46615 35.6491C1.46943 35.6343 1.47289 35.6196 1.47635 35.6049C1.48674 35.5601 1.49795 35.5155 1.50997 35.4711C1.51653 35.4471 1.52336 35.4233 1.53038 35.3994C1.5404 35.3646 1.55079 35.3298 1.56181 35.2955C1.57283 35.2612 1.58459 35.2272 1.59652 35.1932C1.60481 35.1694 1.61301 35.1456 1.62194 35.122C1.63861 35.0772 1.65629 35.0328 1.67451 34.9888C1.6797 34.9762 1.6848 34.9633 1.69018 34.9507C1.71359 34.896 1.73792 34.842 1.76361 34.7886C1.7647 34.7863 1.7657 34.784 1.7668 34.7818C2.30231 33.6736 3.33225 32.8473 4.56827 32.591C4.57173 32.5902 4.57519 32.5894 4.57865 32.5887C4.63532 32.5771 4.69254 32.5672 4.75011 32.558C4.75968 32.5564 4.76925 32.5545 4.77899 32.5531C4.83102 32.5451 4.88358 32.5389 4.93615 32.533C4.95091 32.5314 4.96558 32.5291 4.98043 32.5276C5.03117 32.5225 5.08237 32.5192 5.13357 32.516C5.14979 32.515 5.16601 32.5132 5.18222 32.5124C5.24928 32.5091 5.31688 32.5073 5.38475 32.5073C5.76284 32.5073 6.0694 32.2008 6.0694 31.8227V26.8585C6.0694 26.4803 5.76284 26.1738 5.38475 26.1738C5.00666 26.1738 4.7001 26.4803 4.7001 26.8585V31.1811C3.54398 31.3273 2.47085 31.843 1.62467 32.6693C1.53566 32.7562 1.4513 32.8466 1.36912 32.9384V7.44357C1.36912 5.46286 2.81095 3.81231 4.70001 3.48634V10.2012V24.1199V24.12C4.70001 24.4981 5.00657 24.8047 5.38466 24.8047C5.76274 24.8047 6.06931 24.4981 6.06931 24.12V24.1199V10.8859H25.952L22.1672 14.6707C21.8998 14.9382 21.8998 15.3716 22.1672 15.639C22.4346 15.9063 22.868 15.9063 23.1353 15.639L28.089 10.6854C28.0892 10.6852 28.0893 10.685 28.0894 10.6849L32.5704 6.20391L35.7138 9.34748L35.345 9.71627C35.3447 9.71654 35.3444 9.71682 35.3441 9.71709L21.5392 23.5222L18.3957 20.3787L21.1168 17.6576C21.3842 17.3901 21.3842 16.9567 21.1168 16.6893C20.8494 16.422 20.416 16.422 20.1486 16.6893L16.9433 19.8946C16.9262 19.9117 16.9101 19.9298 16.8951 19.9484C16.8901 19.9546 16.8856 19.9613 16.8809 19.9677C16.8712 19.9806 16.8618 19.9935 16.8529 20.007C16.8479 20.0148 16.8434 20.0229 16.8386 20.031C16.8311 20.0437 16.8238 20.0567 16.8171 20.0699C16.8128 20.0784 16.8088 20.0871 16.8048 20.096C16.7987 20.1094 16.7931 20.1231 16.7879 20.1367C16.7861 20.1416 16.7837 20.1461 16.782 20.151L15.4481 23.9295L14.5387 26.5059C14.5267 26.5401 14.518 26.5749 14.5115 26.61H12.2346C11.8566 26.61 11.55 26.9165 11.55 27.2947C11.55 27.6728 11.8566 27.9793 12.2346 27.9793H31.1948C31.573 27.9793 31.8795 27.6728 31.8795 27.2947C31.8795 26.9165 31.573 26.61 31.1948 26.61H17.5917L21.767 25.1361C21.7705 25.1348 21.7738 25.1331 21.7772 25.1318C21.7935 25.1258 21.8094 25.1191 21.8252 25.1119C21.8314 25.109 21.8377 25.1062 21.8438 25.1032C21.8602 25.095 21.8764 25.086 21.8922 25.0764C21.8973 25.0733 21.9026 25.0704 21.9076 25.0672C21.9241 25.0567 21.9401 25.0451 21.9559 25.0329C21.9598 25.0299 21.9639 25.0273 21.9677 25.0242C21.9868 25.0089 22.0055 24.9924 22.0231 24.9747L36.1119 10.886H42.057V25.5125L32.2636 35.306C31.9962 35.5735 31.9962 36.0068 32.2636 36.2742C32.2803 36.2909 32.2977 36.3066 32.3156 36.3212C32.4412 36.4236 32.5945 36.4748 32.7477 36.4748C32.901 36.4748 33.0544 36.4236 33.1798 36.3212C33.1978 36.3067 33.2152 36.2909 33.2318 36.2742C33.2321 36.274 33.2318 36.2742 33.2321 36.274L45.2765 24.2295V30.2699ZM20.2869 24.2063L18.3258 24.8986L17.0192 23.592L17.7115 21.6309L20.2869 24.2063Z" fill="#639645"/>
</g>
<defs>
<clipPath id="clip0">
<rect width="46.6456" height="46.6456" fill="white"/>
</clipPath>
</defs>
</svg>
