<svg width="46" height="46" viewBox="0 0 46 46" fill="none" xmlns="http://www.w3.org/2000/svg">
<g clip-path="url(#clip0)">
<path d="M15.4598 0.582978C15.7029 0.0730362 16.3136 -0.143285 16.8235 0.0997496L17.1653 0.262758C17.6754 0.506021 17.8917 1.11656 17.6486 1.62651C17.4732 1.99447 17.1065 2.20954 16.7244 2.20954C16.5767 2.20954 16.4269 2.17748 16.2848 2.10973L15.943 1.94672C15.4328 1.70358 15.2166 1.09303 15.4598 0.582978ZM27.9686 9.98825L19.7668 13.8994C19.2568 14.1427 19.0405 14.7534 19.2837 15.2633C19.4592 15.6311 19.8258 15.8462 20.2078 15.8462C20.3555 15.8462 20.5054 15.8142 20.6475 15.7464L28.8493 11.8352C29.3593 11.592 29.5756 10.9813 29.3324 10.4714C29.089 9.96119 28.4782 9.74521 27.9686 9.98825ZM23.2799 5.44561L27.9686 7.68146C28.1108 7.74921 28.2606 7.78127 28.4083 7.78127C28.7903 7.78127 29.1569 7.5662 29.3324 7.19835C29.5756 6.68841 29.3593 6.07775 28.8493 5.83449L24.1606 3.59863C23.6502 3.35549 23.04 3.57181 22.7968 4.08175C22.5536 4.59169 22.7698 5.20235 23.2799 5.44561ZM14.1907 9.86105C14.1912 9.86105 14.1916 9.86105 14.1921 9.86105L23.2787 9.84957C23.8437 9.84889 24.3011 9.39021 24.3004 8.82514C24.2998 8.26052 23.8419 7.80344 23.2774 7.80344C23.277 7.80344 23.2765 7.80344 23.276 7.80344L14.1894 7.81492C13.6244 7.8156 13.167 8.27427 13.1677 8.83935C13.1683 9.40385 13.6262 9.86105 14.1907 9.86105ZM19.7668 3.77017L20.0682 3.91397C20.2103 3.98172 20.3602 4.01377 20.5078 4.01377C20.8899 4.01377 21.2566 3.7987 21.432 3.43074C21.6751 2.9208 21.4588 2.31025 20.9488 2.06699L20.6473 1.92319C20.1374 1.68016 19.5268 1.89625 19.2835 2.40642C19.0405 2.91648 19.2567 3.52702 19.7668 3.77017ZM9.95398 9.86616C9.95432 9.86616 9.95478 9.86616 9.95523 9.86616L10.3341 9.86571C10.8992 9.86503 11.3566 9.40647 11.3559 8.84139C11.3552 8.27677 10.8975 7.81958 10.3329 7.81958C10.3325 7.81958 10.3321 7.81958 10.3316 7.81958L9.95273 7.82003C9.38766 7.82071 8.93023 8.27927 8.93092 8.84435C8.9316 9.40897 9.38948 9.86616 9.95398 9.86616ZM16.2847 15.56L15.9428 15.7231C15.4328 15.9664 15.2165 16.5769 15.4598 17.0868C15.6352 17.4547 16.0018 17.6698 16.3838 17.6698C16.5315 17.6698 16.6814 17.6377 16.8235 17.5699L17.1655 17.4067C17.6755 17.1635 17.8917 16.5529 17.6485 16.043C17.4052 15.5329 16.7944 15.3166 16.2847 15.56ZM38.939 28.7699C38.374 28.7699 37.916 29.2279 37.916 29.793V30.3844C37.916 30.9495 38.374 31.4075 38.939 31.4075C39.5041 31.4075 39.9621 30.9495 39.9621 30.3844V29.793C39.9621 29.228 39.504 28.7699 38.939 28.7699ZM44.6808 18.2223V44.9769C44.6808 45.542 44.2228 45.9999 43.6578 45.9999H27.6047C27.0396 45.9999 26.5816 45.542 26.5816 44.9769V18.2223C26.5816 17.7304 26.9289 17.3195 27.3917 17.2214C28.0272 15.3455 29.5016 13.8094 31.4264 12.8915L31.9091 8.30349C31.9638 7.78275 32.4029 7.38739 32.9265 7.38739H38.3358C38.8593 7.38739 39.2985 7.78275 39.3531 8.30349L39.8359 12.8917C41.7609 13.8095 43.235 15.3455 43.8707 17.2214C44.3335 17.3195 44.6808 17.7304 44.6808 18.2223ZM33.5593 12.1748C34.2243 12.0352 34.9185 11.9616 35.6311 11.9616C36.344 11.9616 37.0381 12.0352 37.7033 12.1748L37.4149 9.43363H33.8476L33.5593 12.1748ZM29.6289 17.1993H38.9389H41.6334C40.6179 15.3152 38.2612 14.0078 35.631 14.0078C33.0008 14.0078 30.6444 15.3154 29.6289 17.1993ZM42.6347 19.2454H39.9621V26.2239C39.9621 26.7889 39.5041 27.2469 38.939 27.2469C38.374 27.2469 37.916 26.7889 37.916 26.2239V22.6273C37.729 22.8719 37.4342 23.0298 37.1025 23.0298C36.5374 23.0298 36.0794 22.5718 36.0794 22.0068V19.2454H28.6279V43.9538H42.6348V19.2454H42.6347ZM18.9453 28.5968V33.7837H21.3854C21.9505 33.7837 22.4084 34.2417 22.4084 34.8068C22.4084 35.3719 21.9505 35.8299 21.3854 35.8299H17.9434C17.9292 35.8301 17.9153 35.8301 17.901 35.8299H14.9636V41.0169H21.3854C21.9505 41.0169 22.4084 41.4749 22.4084 42.04C22.4084 42.6051 21.9505 43.0631 21.3854 43.0631H2.34214C1.77707 43.0631 1.31908 42.6051 1.31908 42.04C1.31908 41.4749 1.77707 41.0169 2.34214 41.0169H12.9173V35.8299H5.82636C5.81216 35.8301 5.79817 35.8301 5.78396 35.8299H2.34214C1.77707 35.8299 1.31908 35.3719 1.31908 34.8068C1.31908 34.2417 1.77707 33.7837 2.34214 33.7837H4.78216V28.5968H2.34214C1.77707 28.5968 1.31908 28.1388 1.31908 27.5737C1.31908 27.0087 1.77707 26.5507 2.34214 26.5507H8.45053V21.3637H2.34214C1.77707 21.3637 1.31908 20.9057 1.31908 20.3407C1.31908 19.7756 1.77707 19.3176 2.34214 19.3176H11.6896C12.2546 19.3176 12.7126 19.7756 12.7126 20.3407C12.7126 20.9057 12.2546 21.3637 11.6896 21.3637H10.4967V26.5507H21.3854C21.9505 26.5507 22.4084 27.0087 22.4084 27.5737C22.4084 28.1388 21.9505 28.5968 21.3854 28.5968H18.9453ZM16.8991 28.5968H6.82829V33.7837H16.8991V28.5968Z" fill="#639645"/>
</g>
<defs>
<clipPath id="clip0">
<rect width="46" height="46" fill="white"/>
</clipPath>
</defs>
</svg>
