<svg width="46" height="46" viewBox="0 0 46 46" fill="none" xmlns="http://www.w3.org/2000/svg">
<g clip-path="url(#clip0)">
<path d="M45.9794 0.879084C45.9746 0.825537 45.9639 0.772619 45.9476 0.721318C45.927 0.671365 45.9011 0.623748 45.8702 0.579455C45.8558 0.54792 45.8391 0.517463 45.8204 0.488264C45.8132 0.479639 45.8026 0.476314 45.7951 0.468049C45.7567 0.430045 45.7145 0.396174 45.6689 0.367154C45.6335 0.338314 45.5956 0.312799 45.5557 0.290877C45.5133 0.274436 45.4694 0.261768 45.4247 0.253232C45.3732 0.236881 45.3202 0.226189 45.2664 0.221248C45.2549 0.220709 45.2451 0.2146 45.2335 0.2146C45.1983 0.219002 45.1636 0.22601 45.1296 0.235533C45.0767 0.240385 45.0245 0.250896 44.9739 0.266979C44.9238 0.287553 44.8763 0.313428 44.832 0.344244C44.8001 0.358709 44.7694 0.37551 44.7399 0.394377L0.475453 37.5354L0.268813 37.7118C0.260727 37.7186 0.257762 37.7285 0.250125 37.7356C0.212481 37.7743 0.179149 37.8169 0.150578 37.8627C0.121738 37.8981 0.0962227 37.9359 0.074211 37.9759C0.058668 38.0176 0.0467188 38.0606 0.038543 38.1043C0.0218321 38.1568 0.010961 38.211 0.00601961 38.2658C0.0053907 38.2761 7.48728e-08 38.2846 7.48728e-08 38.2951V45.0187C-8.97689e-05 45.222 0.0806798 45.4171 0.22452 45.5609C0.36827 45.7047 0.56332 45.7854 0.766727 45.7854H45.2334C45.4367 45.7855 45.6317 45.7047 45.7756 45.5609C45.9193 45.4171 46.0001 45.2221 46.0001 45.0187V0.981416C45.9956 0.946826 45.9888 0.912686 45.9794 0.879084ZM44.4666 44.2521H1.53336V41.9521H44.4667V44.2521H44.4666ZM44.4666 40.4187H5.39476L7.22218 38.8853H44.4667V40.4187H44.4666ZM9.04933 37.3521L22.2334 26.2888V37.3521H9.04933ZM23.7666 37.3521V25.0021L24.8955 24.0549L25.3 24.4595V37.3521H23.7666ZM41.4 36.2204V37.3521H40.3608L26.0744 23.0656L27.2548 22.0752L41.4 36.2204ZM28.4337 21.0858L41.4 10.2053V34.0522L28.4337 21.0858ZM38.1926 37.3521H26.8334V25.9928L38.1926 37.3521ZM44.4666 37.3521H42.9333V8.91857L44.4666 7.63192V37.3521ZM44.4666 5.62993L22.4615 24.096L22.4568 24.0999L6.40289 37.5719L6.39418 37.5793L3.01057 40.4187H1.53336V38.6527L44.4666 2.62574V5.62993Z" fill="#639645"/>
</g>
<defs>
<clipPath id="clip0">
<rect width="46" height="46" fill="white"/>
</clipPath>
</defs>
</svg>
