<svg width="45" height="45" viewBox="0 0 45 45" fill="none" xmlns="http://www.w3.org/2000/svg">
<path d="M42.3281 15.5296L22.489 0.268555L15.1562 6.19055V1.20341H6.34375V13.3089L2.67188 16.2743V40.1253H0.46875V44.5315H44.5312V40.1253H42.3281V15.5296ZM7.8125 8.54716H10.75V7.07841H7.8125V5.60966H9.28125V4.14091H7.8125V2.67216H13.6875V4.87529H12.2188V6.34404H13.6875V7.3773L7.8125 12.1228V8.54716ZM4.14062 18.8056V16.9763L22.511 2.13827L40.8594 16.2522V18.8056L22.5 4.68288L4.14062 18.8056ZM4.14062 38.6565H7.07812V37.1878H4.14062V20.6592L22.5 6.53645L40.8594 20.6592V37.1878H36.4531V38.6565H40.8594V40.1253H29.8438V37.1878H27.6406V22.5003H17.3594V37.1878H15.1562V40.1253H4.14062V38.6565ZM26.1719 37.1878H18.8281V23.969H26.1719V37.1878ZM28.375 38.6565V40.1253H16.625V38.6565H28.375ZM43.0625 41.594V43.0628H1.9375V41.594H43.0625Z" fill="#639645"/>
<path d="M15.8906 22.5H5.60938V32.7813H15.8906V22.5ZM14.4219 26.9063H11.4844V23.9688H14.4219V26.9063ZM10.0156 23.9688V26.9063H7.07812V23.9688H10.0156ZM7.07812 28.375H10.0156V31.3125H7.07812V28.375ZM11.4844 31.3125V28.375H14.4219V31.3125H11.4844Z" fill="#639645"/>
<path d="M39.3906 22.5H29.1094V32.7813H39.3906V22.5ZM37.9219 26.9063H34.9844V23.9688H37.9219V26.9063ZM33.5156 23.9688V26.9063H30.5781V23.9688H33.5156ZM30.5781 28.375H33.5156V31.3125H30.5781V28.375ZM34.9844 31.3125V28.375H37.9219V31.3125H34.9844Z" fill="#639645"/>
<path d="M21.7656 29.8438H20.2969V31.3125H21.7656V29.8438Z" fill="#639645"/>
<path d="M10.0156 37.1875H8.54688V38.6562H10.0156V37.1875Z" fill="#639645"/>
<path d="M26.9062 20.2969V11.4844H18.0938V20.2969H26.9062ZM23.2344 18.8281V16.625H25.4375V18.8281H23.2344ZM25.4375 15.1562H23.2344V12.9531H25.4375V15.1562ZM21.7656 12.9531V15.1562H19.5625V12.9531H21.7656ZM19.5625 18.8281V16.625H21.7656V18.8281H19.5625Z" fill="#639645"/>
</svg>
