<svg width="46" height="46" viewBox="0 0 46 46" fill="none" xmlns="http://www.w3.org/2000/svg">
<path d="M34.5 19.1665H15.3333C14.9101 19.1665 14.5667 19.5092 14.5667 19.9332C14.5667 20.3571 14.9101 20.6998 15.3333 20.6998H34.5C34.9232 20.6998 35.2667 20.3571 35.2667 19.9332C35.2667 19.5092 34.9232 19.1665 34.5 19.1665Z" fill="#639645"/>
<path d="M15.3333 14.5665H23C23.4232 14.5665 23.7667 14.2238 23.7667 13.7999C23.7667 13.3759 23.4232 13.0332 23 13.0332H15.3333C14.9101 13.0332 14.5667 13.3759 14.5667 13.7999C14.5667 14.2238 14.9101 14.5665 15.3333 14.5665Z" fill="#639645"/>
<path d="M34.5 25.2998H15.3333C14.9101 25.2998 14.5667 25.6425 14.5667 26.0665C14.5667 26.4904 14.9101 26.8331 15.3333 26.8331H34.5C34.9232 26.8331 35.2667 26.4904 35.2667 26.0665C35.2667 25.6425 34.9232 25.2998 34.5 25.2998Z" fill="#639645"/>
<path d="M34.5 31.4331H15.3333C14.9101 31.4331 14.5667 31.7758 14.5667 32.1998C14.5667 32.6237 14.9101 32.9664 15.3333 32.9664H34.5C34.9232 32.9664 35.2667 32.6237 35.2667 32.1998C35.2667 31.7758 34.9232 31.4331 34.5 31.4331Z" fill="#639645"/>
<path d="M34.5 37.5669H15.3333C14.9101 37.5669 14.5667 37.9096 14.5667 38.3336C14.5667 38.7575 14.9101 39.1002 15.3333 39.1002H34.5C34.9232 39.1002 35.2667 38.7575 35.2667 38.3336C35.2667 37.9096 34.9232 37.5669 34.5 37.5669Z" fill="#639645"/>
<path d="M37.5667 11.1826V0H4.60001V42.1667H8.43334V46H41.4V15.0159L37.5667 11.1826ZM30.6667 6.45073L37.5667 13.3507L38.7826 14.5667H30.6667V6.45073ZM6.13334 40.6333V1.53333H36.0333V9.64927L30.2174 3.83333H8.43334V40.6333H6.13334ZM9.96667 44.4667V42.1667V5.36667H29.1333V16.1H39.8667V44.4667H9.96667Z" fill="#639645"/>
</svg>
