<svg width="53" height="53" viewBox="0 0 53 53" fill="none" xmlns="http://www.w3.org/2000/svg">
<g clip-path="url(#clip0)">
<path d="M50.2548 21.7817H45.3338C44.9048 21.7817 44.5574 22.1291 44.5574 22.5581C44.5574 22.9871 44.9048 23.3345 45.3338 23.3345H50.2548C50.9123 23.3345 51.4473 23.8694 51.4473 24.5273V26.461H48.838C48.4089 26.461 48.0616 26.8083 48.0616 27.2373C48.0616 27.666 48.4089 28.0137 48.838 28.0137H51.4473V36.3374L47.3984 37.4235H31.191C30.7619 37.4235 30.4146 37.7709 30.4146 38.1999C30.4146 38.6285 30.7619 38.9762 31.191 38.9762H47.3406L51.4473 40.7469V43.1557C51.4473 43.8136 50.9123 44.3485 50.2548 44.3485H12.7409C12.083 44.3485 11.5481 43.8136 11.5481 43.1557V35.9937H20.5624C20.9914 35.9937 21.3388 35.646 21.3388 35.2173C21.3388 34.7883 20.9914 34.441 20.5624 34.441H11.5481V33.5906C11.5481 33.162 11.2007 32.8142 10.7717 32.8142C10.3431 32.8142 9.99533 33.162 9.99533 33.5906V43.1557C9.99533 44.6696 11.227 45.9013 12.7409 45.9013H50.2548C51.7683 45.9013 53 44.6696 53 43.1557V40.2362C53 39.9261 52.8156 39.6459 52.531 39.5229L49.859 38.3709L52.425 37.6827C52.7639 37.5913 53 37.284 53 36.9326V24.5273C53 23.0134 51.7683 21.7817 50.2548 21.7817Z" fill="#639645"/>
<path d="M43.0047 28.5169V9.88817C43.0047 8.37425 41.7734 7.14258 40.2595 7.14258H29.8598C29.8513 7.14258 29.8432 7.14258 29.8347 7.14258H17.2932C16.8642 7.14258 16.5168 7.49033 16.5168 7.91895C16.5168 8.34797 16.8642 8.69531 17.2932 8.69531H22.4079C23.0456 9.55902 23.775 10.7418 24.0605 11.9318C24.3557 13.1623 24.1042 14.1048 23.2926 14.8141C22.1301 15.829 20.4407 15.8512 19.5366 15.7752C17.5722 15.6102 15.5621 15.049 13.5618 14.1072C12.4744 13.5949 11.4077 13.007 10.2788 12.3851C7.66137 10.9423 4.96471 9.45672 1.98944 8.96623C2.19566 8.79721 2.4589 8.69572 2.74559 8.69572H14.1877C14.6163 8.69572 14.9641 8.34797 14.9641 7.91935C14.9641 7.49033 14.6163 7.14298 14.1877 7.14298H2.74559C1.23167 7.14298 0 8.37425 0 9.88817V21.1071V21.1358V26.5032V26.5336V28.5169C0 30.0309 1.23167 31.2621 2.74559 31.2621H40.2595C41.773 31.2621 43.0047 30.0309 43.0047 28.5169ZM41.4519 9.88817V18.3324C40.756 19.2183 39.97 20.0424 39.1123 20.7856C35.9967 23.4879 31.9022 25.2008 27.5833 25.6088C20.9279 26.2347 13.9443 23.752 7.05847 24.2125C5.08237 24.3456 3.20292 24.7358 1.55273 25.352V21.7541C2.20254 21.6255 2.86326 21.5135 3.52438 21.4205C9.02567 20.6429 14.5739 21.025 19.7496 21.5535L20.0032 21.5798C21.5834 21.7423 23.2178 21.9101 24.8579 21.7549C26.8849 21.5624 28.6103 20.875 29.8465 19.7674C32.3349 17.5382 32.5965 13.992 32.0122 11.4174C31.8129 10.5359 31.5076 9.63747 31.087 8.69531H40.2595C40.917 8.69531 41.4519 9.23028 41.4519 9.88817ZM12.9002 15.5116C15.0684 16.5326 17.2576 17.1419 19.4059 17.3223C19.6676 17.3445 19.9247 17.3554 20.1775 17.3554C21.8394 17.355 23.2882 16.8791 24.314 15.9835C26.2218 14.3167 26.1951 11.7058 24.2906 8.69531H29.3713C29.9079 9.78101 30.2775 10.7875 30.4979 11.7603C31.1097 14.4554 30.4473 17.1444 28.8105 18.6106C27.5631 19.7286 25.8927 20.0966 24.7111 20.209C23.2239 20.3501 21.6675 20.1896 20.1621 20.0351L19.9073 20.0088C14.6341 19.4702 8.97311 19.0825 3.30724 19.8827C2.72012 19.9656 2.13299 20.0626 1.55273 20.1722V10.4696C4.3424 10.8861 6.97558 12.3374 9.5295 13.7445C10.6298 14.3511 11.768 14.9786 12.9002 15.5116ZM1.55273 28.5169V27.0224C3.1827 26.3338 5.11068 25.8995 7.16239 25.7616C13.9443 25.3071 20.7229 27.813 27.7288 27.1547C32.3676 26.7163 36.7719 24.8712 40.1297 21.9591C40.5903 21.56 41.0318 21.139 41.4519 20.6991V28.5169C41.4519 29.1744 40.917 29.7094 40.2595 29.7094H2.74559C2.0877 29.7094 1.55273 29.1744 1.55273 28.5169Z" fill="#639645"/>
</g>
<defs>
<clipPath id="clip0">
<rect width="53" height="53" fill="white"/>
</clipPath>
</defs>
</svg>
