<svg width="51" height="51" viewBox="0 0 51 51" fill="none" xmlns="http://www.w3.org/2000/svg">
<path d="M48.6094 4.78125H2.39062C2.17928 4.78125 1.97659 4.86521 1.82715 5.01465C1.67771 5.16409 1.59375 5.36678 1.59375 5.57812V31.0781C1.59375 31.2895 1.67771 31.4922 1.82715 31.6416C1.97659 31.791 2.17928 31.875 2.39062 31.875H23.0767L23.0687 31.9093C22.959 32.6987 23.0198 33.5024 23.2472 34.2663C23.4745 35.0301 23.863 35.7364 24.3864 36.3373C24.9099 36.9383 25.5562 37.42 26.2816 37.7499C27.0071 38.0799 27.7949 38.2504 28.5919 38.25H28.6875V46.2188C28.6875 47.0641 29.0233 47.8749 29.6211 48.4727C30.2189 49.0704 31.0296 49.4062 31.875 49.4062C32.7204 49.4062 33.5311 49.0704 34.1289 48.4727C34.7267 47.8749 35.0625 47.0641 35.0625 46.2188V38.25H35.1581C35.958 38.2508 36.7486 38.0792 37.4761 37.747C38.2037 37.4148 38.8511 36.9297 39.3743 36.3247C39.8975 35.7197 40.2842 35.0091 40.5081 34.2413C40.732 33.4734 40.7878 32.6664 40.6717 31.875H48.6094C48.8207 31.875 49.0234 31.791 49.1729 31.6416C49.3223 31.4922 49.4062 31.2895 49.4062 31.0781V5.57812C49.4062 5.36678 49.3223 5.16409 49.1729 5.01465C49.0234 4.86521 48.8207 4.78125 48.6094 4.78125ZM19.125 11.1562V6.375H32.6719V11.1562H19.125ZM3.1875 6.375H17.5312V11.1562H3.1875V6.375ZM23.4401 30.2812H3.1875V12.75H19.9219V14.3438C19.9219 14.5551 20.0058 14.7578 20.1553 14.9072C20.3047 15.0567 20.5074 15.1406 20.7188 15.1406H23.9062C24.1176 15.1406 24.3203 15.2246 24.4697 15.374C24.6192 15.5235 24.7031 15.7262 24.7031 15.9375C24.7031 16.1488 24.6192 16.3515 24.4697 16.501C24.3203 16.6504 24.1176 16.7344 23.9062 16.7344H22.3125V18.3281H23.9062C24.5403 18.3281 25.1483 18.0763 25.5967 17.6279C26.045 17.1796 26.2969 16.5715 26.2969 15.9375C26.2969 15.3035 26.045 14.6954 25.5967 14.2471C25.1483 13.7987 24.5403 13.5469 23.9062 13.5469H21.5156V12.75H40.6406V17.5312H37.3679C37.032 16.3796 36.331 15.3683 35.3705 14.6497C34.41 13.931 33.2419 13.544 32.0423 13.5469H31.7077C30.442 13.5415 29.2125 13.969 28.2232 14.7585C27.234 15.548 26.5444 16.6521 26.269 17.8875L23.4401 30.2812ZM47.8125 12.75V17.5312H42.2344V12.75H47.8125ZM47.8125 23.9062H38.8556L37.7639 19.125H47.8125V23.9062ZM33.4688 46.2188C33.4688 46.6414 33.3008 47.0468 33.002 47.3457C32.7031 47.6446 32.2977 47.8125 31.875 47.8125C31.4523 47.8125 31.0469 47.6446 30.748 47.3457C30.4492 47.0468 30.2812 46.6414 30.2812 46.2188V34.2656C30.2812 33.8429 30.4492 33.4376 30.748 33.1387C31.0469 32.8398 31.4523 32.6719 31.875 32.6719C32.2977 32.6719 32.7031 32.8398 33.002 33.1387C33.3008 33.4376 33.4688 33.8429 33.4688 34.2656V46.2188ZM38.1615 35.2904C37.7875 35.7194 37.3259 36.0632 36.8079 36.2988C36.2898 36.5344 35.7273 36.6563 35.1581 36.6562H35.0625V34.2656C35.0599 33.561 34.8238 32.8771 34.3913 32.3209C33.9588 31.7647 33.3541 31.3674 32.6719 31.1913V26.8722C32.9757 26.6968 33.2132 26.426 33.3474 26.1019C33.4817 25.7778 33.5052 25.4184 33.4144 25.0795C33.3236 24.7406 33.1236 24.4412 32.8452 24.2276C32.5669 24.014 32.2258 23.8982 31.875 23.8982C31.5242 23.8982 31.1831 24.014 30.9048 24.2276C30.6264 24.4412 30.4264 24.7406 30.3356 25.0795C30.2448 25.4184 30.2683 25.7778 30.4026 26.1019C30.5368 26.426 30.7743 26.6968 31.0781 26.8722V31.1913C30.3959 31.3674 29.7912 31.7647 29.3587 32.3209C28.9262 32.8771 28.6901 33.561 28.6875 34.2656V36.6562H28.5919C28.0282 36.6564 27.4709 36.5369 26.9568 36.3057C26.4428 36.0745 25.9836 35.7369 25.6096 35.3151C25.2357 34.8934 24.9555 34.3971 24.7876 33.859C24.6196 33.3209 24.5678 32.7533 24.6354 32.1938L27.8229 18.2405C28.0199 17.3582 28.5125 16.5699 29.2191 16.0061C29.9257 15.4422 30.8037 15.1369 31.7077 15.1406H32.0423C32.9466 15.137 33.8249 15.4427 34.5316 16.007C35.2382 16.5713 35.7306 17.3602 35.9271 18.2429L39.1019 32.1268C39.1802 32.6907 39.1369 33.2648 38.9747 33.8105C38.8125 34.3563 38.5352 34.8609 38.1615 35.2904ZM40.3123 30.2812L39.2198 25.5H47.8125V30.2812H40.3123ZM47.8125 11.1562H34.2656V6.375H47.8125V11.1562Z" fill="#639645"/>
<path d="M8.99955 6.60831L5.81197 9.7959L6.93892 10.9229L10.1265 7.73527L8.99955 6.60831Z" fill="#639645"/>
<path d="M12.1863 8.20215L10.5928 9.79565L11.7198 10.9226L13.3133 9.3291L12.1863 8.20215Z" fill="#639645"/>
<path d="M43.2643 20.9524L41.6708 22.5459L42.7978 23.6728L44.3913 22.0793L43.2643 20.9524Z" fill="#639645"/>
<path d="M17.5312 16.7344H6.375V18.3281H17.5312V16.7344Z" fill="#639645"/>
<path d="M20.7188 16.7344H19.125V18.3281H20.7188V16.7344Z" fill="#639645"/>
<path d="M11.9531 20.7188H5.57812V22.3125H11.9531V20.7188Z" fill="#639645"/>
<path d="M15.1406 20.7188H13.5469V22.3125H15.1406V20.7188Z" fill="#639645"/>
<path d="M18.3281 20.7188H16.7344V22.3125H18.3281V20.7188Z" fill="#639645"/>
<path d="M20.7188 23.9062H13.5469V25.5H20.7188C20.9301 25.5 21.1328 25.584 21.2822 25.7334C21.4317 25.8828 21.5156 26.0855 21.5156 26.2969C21.5156 26.5082 21.4317 26.7109 21.2822 26.8604C21.1328 27.0098 20.9301 27.0938 20.7188 27.0938H17.5312C17.3199 27.0938 17.1172 27.1777 16.9678 27.3271C16.8183 27.4766 16.7344 27.6793 16.7344 27.8906V29.4844H18.3281V28.6875H20.7188C21.3528 28.6875 21.9608 28.4356 22.4092 27.9873C22.8575 27.539 23.1094 26.9309 23.1094 26.2969C23.1094 25.6628 22.8575 25.0548 22.4092 24.6064C21.9608 24.1581 21.3528 23.9063 20.7188 23.9062Z" fill="#639645"/>
</svg>
