<svg width="41" height="42" viewBox="0 0 41 42" fill="none" xmlns="http://www.w3.org/2000/svg">
<g clip-path="url(#clip0)">
<path d="M39.5307 39.9033H40.8431V41.2158H39.5307V39.9033Z" fill="#639645"/>
<path d="M0.15686 39.9033H1.46932V41.2158H0.15686V39.9033Z" fill="#639645"/>
<path d="M40.8431 29.4034C40.8431 24.0773 37.2976 19.5673 32.4442 18.0985C32.7662 17.7127 32.9684 17.2231 32.9684 16.6826C32.9684 15.7684 32.4204 14.959 31.572 14.6193L19.8268 9.92127C19.5182 9.79791 19.1981 9.70851 18.8758 9.65564L15.9064 9.16058V8.7059C16.7097 7.98462 17.2188 6.94196 17.2188 5.77914V4.46668C17.2188 2.29516 15.453 0.529297 13.2815 0.529297C11.1099 0.529297 9.34408 2.29516 9.34408 4.46668V5.77914C9.34408 6.94132 9.85324 7.98398 10.6565 8.7059V9.24389L6.09626 10.764C5.29135 11.0322 4.75047 11.7823 4.75047 12.6308V23.1692C4.75047 23.523 4.83763 23.8543 4.98086 24.1536H1.46932C0.745481 24.1536 0.15686 24.7422 0.15686 25.466V30.7159C0.15686 31.4397 0.745481 32.0284 1.46932 32.0284H8.03162V39.9031H2.78178V41.2156H38.2182V39.9031H34.418C38.2269 37.9402 40.8431 33.9753 40.8431 29.4034ZM39.5307 29.4034C39.5307 35.1925 34.8201 39.9031 29.031 39.9031C23.2419 39.9031 18.5313 35.1925 18.5313 29.4034C18.5313 23.6143 23.2419 18.9037 29.031 18.9037C34.8201 18.9037 39.5307 23.6143 39.5307 29.4034ZM18.5313 24.0171V14.9664H19.7249L27.1594 17.7541C23.3934 18.3577 20.2199 20.7391 18.5313 24.0171ZM10.6565 4.46668C10.6565 3.019 11.8338 1.84176 13.2815 1.84176C14.7291 1.84176 15.9064 3.019 15.9064 4.46668V5.77914C15.9064 7.22682 14.7291 8.40406 13.2815 8.40406C11.8338 8.40406 10.6565 7.22682 10.6565 5.77914V4.46668ZM8.81699 25.466L6.24461 27.1806C5.74539 27.5129 5.06673 27.5129 4.56815 27.1806L1.99642 25.466H8.81699ZM1.46932 26.692L3.84079 28.2726C4.30636 28.5831 4.84756 28.7472 5.4067 28.7472C5.96584 28.7472 6.50704 28.5831 6.97326 28.2726L9.34408 26.692L9.34472 30.7159H1.46932V26.692ZM9.34408 32.0284C10.0679 32.0284 10.6565 31.4397 10.6565 30.7159V25.466C10.6565 24.7422 10.0679 24.1536 9.34408 24.1536V13.6539H8.03162V23.1692C8.03162 23.712 7.59008 24.1536 7.04728 24.1536C6.50448 24.1536 6.06293 23.712 6.06293 23.1692V12.6308C6.06293 12.3478 6.24333 12.0979 6.51185 12.0082L11.969 10.1898V9.48678C12.3804 9.63321 12.8207 9.71652 13.2815 9.71652C13.7422 9.71652 14.1825 9.63257 14.5939 9.48678V10.2725L18.6604 10.9502C18.8902 10.9889 19.1186 11.0521 19.3385 11.1405L31.0836 15.8386C31.4316 15.977 31.6559 16.3089 31.6559 16.6826C31.6559 17.1837 31.2477 17.5913 30.7472 17.5913H30.6277C30.5187 17.5913 30.4111 17.5724 30.3085 17.533L19.9626 13.6539H17.2188V39.9031H13.9377V22.1849H12.6252V39.9031H9.34408V32.0284ZM18.5313 39.9031V34.7898C19.6608 36.9815 21.4523 38.7736 23.644 39.9031H18.5313Z" fill="#639645"/>
<path d="M28.3748 24.8096V30.0594H31.6559V28.747H29.6872V24.8096H28.3748Z" fill="#639645"/>
<path d="M23.0573 22.4317L23.9119 23.4279C25.1724 22.3471 26.7361 21.6967 28.3748 21.5582V23.4975H29.6872V21.5621C33.5057 21.8793 36.5552 24.9288 36.8724 28.7473H34.9371V30.0598H36.8763C36.7379 31.6978 36.088 33.2621 35.0066 34.522L36.0034 35.3772C37.4312 33.711 38.2182 31.5901 38.2182 29.4035C38.2182 24.3373 34.0972 20.2163 29.031 20.2163C26.8438 20.2163 24.7229 21.0033 23.0573 22.4317Z" fill="#639645"/>
<path d="M29.6872 37.2487V35.3094H28.3748V37.2448C24.5563 36.9276 21.5068 33.8781 21.1895 30.0596H23.1249V28.7471H21.1857C21.3241 27.1091 21.974 25.5448 23.0554 24.2849L22.0585 23.4297C20.6307 25.0959 19.8438 27.2168 19.8438 29.4034C19.8438 34.4696 23.9647 38.5906 29.031 38.5906C31.2182 38.5906 33.3391 37.8036 35.0047 36.3752L34.1501 35.379C32.8895 36.4604 31.3252 37.1109 29.6872 37.2487Z" fill="#639645"/>
</g>
<defs>
<clipPath id="clip0">
<rect width="40.6863" height="40.6863" fill="white" transform="translate(0.15686 0.529297)"/>
</clipPath>
</defs>
</svg>
