<svg width="45" height="45" viewBox="0 0 45 45" fill="none" xmlns="http://www.w3.org/2000/svg">
<g clip-path="url(#clip0)">
<path d="M0.57129 29.4553C0.935213 29.4553 1.23047 29.1601 1.23047 28.7961V26.1299C1.23047 25.7656 0.935213 25.4707 0.57129 25.4707C0.207367 25.4707 -0.0878906 25.7656 -0.0878906 26.1299V28.7961C-0.0878906 29.1601 0.207367 29.4553 0.57129 29.4553Z" fill="#639645"/>
<path d="M42.375 9.84067H39.6446V9.52962C39.6446 8.64865 38.9277 7.93145 38.0464 7.93145H37.7666V7.13528C37.7666 6.25397 37.0494 5.53711 36.1684 5.53711H33.0191C32.1382 5.53711 31.421 6.25397 31.421 7.13528V7.93145H31.1412C30.2598 7.93145 29.543 8.64831 29.543 9.52962V9.84067H20.1603V9.15402C20.1603 8.27305 19.4434 7.55585 18.5621 7.55585H17.2911C16.4102 7.55585 15.693 8.27271 15.693 9.15402V9.84067H14.1508V8.21503C14.1508 7.33406 13.4339 6.61686 12.5526 6.61686H5.64767C4.7667 6.61686 4.0495 7.33406 4.0495 8.21503V9.84067H2.44927C1.05023 9.84067 -0.0878906 10.9791 -0.0878906 12.3778V23.2591C-0.0878906 23.6234 0.207368 23.9183 0.57129 23.9183C0.935213 23.9183 1.23047 23.6234 1.23047 23.2591V16.999H4.83811C5.12822 18.0612 6.10154 18.8447 7.25442 18.8447C8.40765 18.8447 9.38063 18.0612 9.67073 16.999H14.9057C11.8649 19.2848 9.89458 22.9213 9.89458 27.0096C9.89458 29.6937 10.744 32.1828 12.1876 34.2232H1.23047V31.6668C1.23047 31.3025 0.935213 31.0076 0.57129 31.0076C0.207368 31.0076 -0.0878906 31.3025 -0.0878906 31.6668V35.7901C-0.0878906 37.1891 1.05023 38.3272 2.44927 38.3272H17.0673C18.6892 39.0963 20.5012 39.5272 22.4122 39.5272C24.3238 39.5272 26.1362 39.0959 27.7584 38.3262C27.7635 38.3265 27.7683 38.3272 27.7735 38.3272H42.375C43.7741 38.3272 44.9122 37.1891 44.9122 35.7901V12.3778C44.9122 10.9791 43.7741 9.84067 42.375 9.84067ZM32.7393 7.13528C32.7393 6.98113 32.865 6.85547 33.0195 6.85547H36.1684C36.3226 6.85547 36.4482 6.98078 36.4482 7.13528V7.93145H32.7397V7.13528H32.7393ZM30.8613 9.52962C30.8613 9.37546 30.987 9.24981 31.1415 9.24981H38.0464C38.2006 9.24981 38.3262 9.37546 38.3262 9.52962V9.84067H30.8617V9.52962H30.8613ZM17.0113 9.15402C17.0113 8.99987 17.137 8.87421 17.2911 8.87421H18.5621C18.7166 8.87421 18.8419 8.99987 18.8419 9.15402V9.84067H17.0113V9.15402ZM5.36786 8.21503C5.36786 8.06088 5.49352 7.93522 5.64767 7.93522H12.5529C12.7071 7.93522 12.8327 8.06088 12.8327 8.21503V9.84067H5.36786V8.21503ZM7.25442 17.5263C6.60039 17.5263 6.0679 16.9942 6.0679 16.3398C6.0679 15.6857 6.60039 15.1533 7.25442 15.1533C7.9088 15.1533 8.44095 15.6857 8.44095 16.3398C8.44095 16.9942 7.9088 17.5263 7.25442 17.5263ZM9.67073 15.6806C9.38063 14.6184 8.40765 13.8349 7.25442 13.8349C6.1012 13.8349 5.12822 14.6184 4.83811 15.6806H1.23047V12.3778C1.23047 11.7059 1.77739 11.159 2.44927 11.159H30.2015H30.2022H30.2032H42.375C43.0469 11.159 43.5938 11.7059 43.5938 12.3778V15.6806H41.6321V13.2856C41.6321 12.9217 41.3368 12.6264 40.9729 12.6264H34.8381C34.4741 12.6264 34.1789 12.9217 34.1789 13.2856V15.6806H27.7295C26.0826 14.9074 24.2695 14.4924 22.4122 14.4924C20.5108 14.4924 18.7077 14.9191 17.0924 15.6806H9.67073ZM35.4972 15.6806V13.9448H40.3137V15.6806H35.4972ZM2.44927 37.0089C1.77739 37.0089 1.23047 36.462 1.23047 35.7901V35.5415H13.2619C13.7607 36.0764 14.3056 36.5677 14.8903 37.0089H2.44927ZM11.2129 27.0099C11.2129 20.8346 16.2371 15.8107 22.4122 15.8107C25.615 15.8107 28.6713 17.1874 30.7978 19.5876C31.0392 19.8602 31.4556 19.8856 31.7282 19.6439C32.0008 19.4026 32.0259 18.9861 31.7845 18.7135C31.2191 18.0753 30.5942 17.5026 29.9227 16.999H43.5938V34.2232H32.6367C33.6433 32.8004 34.3602 31.1593 34.7024 29.3861H36.427C37.3993 29.3861 38.1906 28.5951 38.1906 27.6224V25.9803C38.1906 25.0077 37.3996 24.2166 36.427 24.2166H34.6125C34.3729 23.1678 34.0007 22.1505 33.5012 21.1995C33.3319 20.8771 32.9333 20.7529 32.6113 20.9225C32.2889 21.0917 32.1646 21.49 32.3339 21.8124C33.1695 23.404 33.6114 25.2013 33.6114 27.0099C33.6114 33.1853 28.5875 38.2091 22.4122 38.2091C16.2371 38.2091 11.2129 33.1849 11.2129 27.0099ZM34.8415 25.5347H36.427C36.6724 25.5347 36.8722 25.7345 36.8722 25.98V27.6224C36.8722 27.8679 36.6724 28.0677 36.427 28.0677H34.8844C34.9139 27.7189 34.9297 27.366 34.9297 27.0096C34.9297 26.5162 34.8999 26.0236 34.8415 25.5347ZM42.375 37.0089H29.934C30.5187 36.5677 31.0636 36.0764 31.5624 35.5415H43.5938V35.7901C43.5938 36.462 43.0469 37.0089 42.375 37.0089Z" fill="#639645"/>
<path d="M22.4121 18.1406C17.5215 18.1406 13.5431 22.1194 13.5431 27.01C13.5431 31.9003 17.5215 35.8791 22.4121 35.8791C27.3028 35.8791 31.2812 31.9003 31.2812 27.01C31.2812 22.1194 27.3028 18.1406 22.4121 18.1406ZM22.4121 34.5608C18.2487 34.5608 14.8614 31.1735 14.8614 27.01C14.8614 22.8466 18.2487 19.459 22.4121 19.459C26.5756 19.459 29.9629 22.8466 29.9629 27.01C29.9629 31.1735 26.5756 34.5608 22.4121 34.5608Z" fill="#639645"/>
<path d="M22.4122 20.8154C18.9968 20.8154 16.2179 23.5943 16.2179 27.01C16.2179 30.4257 18.9964 33.2043 22.4122 33.2043C25.8279 33.2043 28.6067 30.4257 28.6067 27.01C28.6067 23.5943 25.8279 20.8154 22.4122 20.8154ZM22.4122 31.8859C19.7236 31.8859 17.5363 29.6986 17.5363 27.01C17.5363 24.3211 19.7236 22.1338 22.4122 22.1338C25.1007 22.1338 27.2884 24.3211 27.2884 27.01C27.2884 29.6986 25.1007 31.8859 22.4122 31.8859Z" fill="#639645"/>
</g>
<defs>
<clipPath id="clip0">
<rect width="45" height="45" fill="white"/>
</clipPath>
</defs>
</svg>
