<svg width="42" height="42" viewBox="0 0 42 42" fill="none" xmlns="http://www.w3.org/2000/svg">
<g clip-path="url(#clip0)">
<path d="M37.8564 9.97888H37.2081V6.08893H29.1883C27.7276 3.02744 24.6117 0.902344 21 0.902344C17.3883 0.902344 14.2724 3.02744 12.8118 6.08893H4.79192V9.97888H4.1436C2.35627 9.97888 0.901978 11.4332 0.901978 13.2205V33.9669C0.901978 35.7542 2.35627 37.2085 4.1436 37.2085H12.5718V39.8018H9.97851V41.0984H32.0215V39.8018H29.4282V37.2085H37.8564C39.6438 37.2085 41.0981 35.7542 41.0981 33.9669V13.2205C41.0981 11.4332 39.6438 9.97888 37.8564 9.97888ZM6.08857 21.6487H35.9115V28.1319H6.08857V21.6487ZM28.5238 8.03391H26.4965C25.6329 8.03391 24.8219 7.6974 24.2119 7.08738L23.8915 6.76701C23.0371 5.91197 21.9 5.44061 20.6895 5.44061C19.5166 5.44061 18.4339 4.804 17.8648 3.77896C17.7261 3.52919 17.6489 3.25695 17.6292 2.97837C18.6511 2.48422 19.7917 2.19899 21 2.19899C24.6177 2.19899 27.657 4.68402 28.5238 8.03391ZM16.4462 3.68431C16.5143 3.93376 16.6029 4.17752 16.7315 4.40861C17.5295 5.84518 19.0459 6.73726 20.6895 6.73726C21.5531 6.73726 22.3641 7.07377 22.9741 7.68378L23.2945 8.00415C24.1495 8.85919 25.2866 9.33055 26.4972 9.33055H28.7476C28.765 9.54518 28.7799 9.75981 28.7799 9.97888C28.7799 10.4436 28.7311 10.8963 28.653 11.3392C27.8451 10.8767 26.927 10.6272 25.9869 10.6272C24.6598 10.6272 23.4838 11.4234 22.9909 12.6557C22.6968 13.393 21.9934 13.8688 21.1998 13.8688H20.5514C19.396 13.8688 18.3225 14.4918 17.7498 15.4947L17.1854 16.483C17.1471 16.5495 17.1174 16.6204 17.0809 16.6885C16.7106 16.4713 16.356 16.2294 16.0281 15.9559L16.5181 14.853C17.1335 13.4674 18.5112 12.5722 20.0275 12.5722C21.2789 12.5722 22.2967 11.5544 22.2967 10.303C22.2967 9.05166 21.2789 8.03391 20.0275 8.03391H19.175C18.0528 8.03391 16.9895 7.54513 16.2588 6.69262L14.9777 5.19875C14.9603 5.17818 14.9388 5.15792 14.9207 5.13734C15.3607 4.5862 15.8752 4.09933 16.4462 3.68431ZM28.2943 12.6589C27.1987 15.6302 24.3474 17.7588 21 17.7588C20.0307 17.7588 19.1057 17.5726 18.2491 17.2472C18.2712 17.207 18.288 17.1649 18.3108 17.1253L18.8749 16.138C19.2171 15.5384 19.8604 15.1655 20.5508 15.1655H21.1991C22.5262 15.1655 23.7022 14.3693 24.1951 13.1369C24.4898 12.3996 25.1932 11.9238 25.9869 11.9238C26.8156 11.9238 27.6149 12.191 28.2943 12.6589ZM14.1733 6.25228L15.274 7.53658C16.2515 8.67653 17.6729 9.33055 19.175 9.33055H20.0275C20.5638 9.33055 21 9.76678 21 10.303C21 10.8393 20.5638 11.2755 20.0275 11.2755C17.9996 11.2755 16.1563 12.4731 15.3322 14.3272L15.0445 14.9749C13.908 13.6219 13.2201 11.8798 13.2201 9.97888C13.2201 8.62968 13.5665 7.35962 14.1733 6.25228ZM12.3059 7.38558C12.0596 8.20833 11.9235 9.07762 11.9235 9.97888C11.9235 14.9841 15.9948 19.0554 21 19.0554C26.0052 19.0554 30.0765 14.9841 30.0765 9.97888C30.0765 9.07762 29.9404 8.20833 29.6941 7.38558H35.9115V20.3521H6.08857V7.38558H12.3059ZM4.1436 11.2755H4.79192V29.4286H37.2081V11.2755H37.8564C38.9286 11.2755 39.8014 12.1483 39.8014 13.2205V30.7252H2.19863V13.2205C2.19863 12.1483 3.07139 11.2755 4.1436 11.2755ZM28.1316 39.8018H13.8685V37.2085H28.1316V39.8018ZM37.8564 35.9118H4.1436C3.07139 35.9118 2.19863 35.0391 2.19863 33.9669V32.0219H39.8014V33.9669C39.8014 35.0391 38.9286 35.9118 37.8564 35.9118Z" fill="#639645"/>
<path d="M17.1101 33.3184H18.4067V34.615H17.1101V33.3184Z" fill="#639645"/>
<path d="M19.7034 33.3184H22.2967V34.615H19.7034V33.3184Z" fill="#639645"/>
<path d="M23.5933 33.3184H24.89V34.615H23.5933V33.3184Z" fill="#639645"/>
<path d="M11.2752 22.9453H9.9785V24.242H7.38521V25.5386H9.9785V26.8353H11.2752V25.5386H34.6148V24.242H11.2752V22.9453Z" fill="#639645"/>
<path d="M33.3182 8.68213H34.6148V9.97878H33.3182V8.68213Z" fill="#639645"/>
<path d="M7.38521 8.68213H8.68186V9.97878H7.38521V8.68213Z" fill="#639645"/>
</g>
<defs>
<clipPath id="clip0">
<rect width="40.1961" height="40.1961" fill="white" transform="translate(0.901978 0.902344)"/>
</clipPath>
</defs>
</svg>
