<svg width="74" height="54" viewBox="0 0 74 54" fill="none" xmlns="http://www.w3.org/2000/svg">
<path d="M64.1067 2.95743C60.9093 1.35869 54.9142 1.34033 54.6606 1.34033C53.9002 1.34033 53.2837 1.95684 53.2837 2.71729C53.2837 3.47773 53.9002 4.09424 54.6606 4.09424C56.2076 4.09424 60.6989 4.33255 62.8752 5.42053C63.0729 5.51949 63.2829 5.56612 63.4899 5.56612C63.9949 5.56612 64.4813 5.28705 64.7225 4.80475C65.0627 4.12454 64.7869 3.29744 64.1067 2.95743Z" fill="#639645"/>
<path d="M72.013 39.945H65.6304C66.0501 39.2728 66.293 38.4812 66.293 37.6343V27.8544C66.293 25.8979 64.9672 24.1561 63.069 23.6186L59.2584 22.5396C58.745 22.3943 58.3866 21.9231 58.3867 21.3939L58.3868 20.5203C58.7418 20.2767 59.0802 20.004 59.3967 19.6996C60.9305 18.2244 61.7752 16.2456 61.7752 14.1279V12.1364L62.1969 11.3005C62.66 10.3828 62.9046 9.35525 62.9046 8.3292V2.93433C62.9046 2.35595 62.4315 1.88705 61.8479 1.88705H51.6827C47.9861 1.88705 44.9786 4.8676 44.9786 8.53112V8.59353C44.9786 9.44658 45.1821 10.301 45.5671 11.0643L46.108 12.1364V13.8463C46.108 16.5561 47.4555 18.9876 49.4964 20.4508V21.3941C49.4964 21.9231 49.1378 22.3943 48.6245 22.5396L44.8142 23.6186C42.916 24.1561 41.5903 25.898 41.5903 27.8545V28.7515H41.5176C40.3121 28.7515 39.3314 29.7234 39.3314 30.9181V39.8729C39.3314 39.8972 39.3343 39.9208 39.3351 39.945H34.0055C34.4252 39.2728 34.6682 38.4812 34.6682 37.6343V27.8544C34.6682 25.8979 33.3423 24.1561 31.4441 23.6186L27.6336 22.5396C27.5923 22.5281 27.5532 22.512 27.5139 22.4962C29.3219 22.147 30.7957 21.6895 31.7411 21.3547C32.2911 21.1599 32.7314 20.764 32.9806 20.2395C33.2276 19.72 33.2558 19.1379 33.0598 18.6006C32.1283 16.0481 31.4258 11.7757 31.2769 9.67279C30.9173 4.59587 27.0653 0.767438 22.3171 0.767578C17.5685 0.767578 13.7164 4.59601 13.3568 9.67279C13.2078 11.7754 12.5054 16.0478 11.5738 18.6006C11.3778 19.1378 11.406 19.7198 11.653 20.2394C11.9024 20.7637 12.3424 21.1599 12.8923 21.3545C13.8377 21.6894 15.3118 22.1468 17.1201 22.4962C17.0808 22.5119 17.0413 22.5276 16.9999 22.5394L13.1896 23.6183C11.2914 24.1558 9.96571 25.8976 9.96571 27.8541V37.634C9.96571 38.4809 10.2088 39.2725 10.6284 39.9447H1.98697C1.40337 39.9447 0.930237 40.4136 0.930237 40.992C0.930237 41.5703 1.40337 42.0393 1.98697 42.0393H3.18911V52.1854C3.18911 52.7638 3.66224 53.2327 4.24584 53.2327C4.82944 53.2327 5.30257 52.7638 5.30257 52.1854V46.5166H14.4836V52.1854C14.4836 52.7638 14.9567 53.2327 15.5403 53.2327C16.1239 53.2327 16.5971 52.7638 16.5971 52.1854V48.7554H28.0371V52.1854C28.0371 52.7638 28.5102 53.2327 29.0938 53.2327C29.6774 53.2327 30.1506 52.7638 30.1506 52.1854V46.5166H68.6974V52.1854C68.6974 52.7638 69.1706 53.2327 69.7542 53.2327C70.3378 53.2327 70.8109 52.7638 70.8109 52.1854V42.0393H72.013C72.5966 42.0393 73.0698 41.5703 73.0698 40.992C73.0698 40.4135 72.5966 39.945 72.013 39.945ZM48.2218 13.8463V11.8891C48.2218 11.7264 48.1836 11.5661 48.1102 11.4208L47.4578 10.1274C47.2187 9.65352 47.0924 9.12318 47.0924 8.59339V8.53098C47.0924 6.0224 49.1517 3.98146 51.6829 3.98146H60.7914V8.32906C60.7914 9.03172 60.6239 9.73521 60.3069 10.3637L59.7736 11.4206C59.7001 11.5661 59.662 11.7263 59.662 11.889V14.1276C59.662 15.6741 59.0451 17.1189 57.925 18.1962C56.8054 19.273 55.3268 19.8402 53.7653 19.7938C50.7085 19.7032 48.2218 17.0349 48.2218 13.8463ZM56.4574 22.4665L55.5905 23.3257C55.1501 23.762 54.5646 24.0025 53.9417 24.0025C53.3189 24.0025 52.7333 23.762 52.293 23.3257L51.4259 22.4663C51.5316 22.1658 51.5919 21.8473 51.6049 21.5199C52.2713 21.7371 52.9743 21.866 53.7017 21.8877C53.783 21.8902 53.8639 21.8913 53.9449 21.8913C54.7486 21.8913 55.5331 21.7707 56.2796 21.5405C56.294 21.8607 56.354 22.1723 56.4574 22.4665ZM43.7039 27.8544C43.7041 26.828 44.3995 25.9144 45.3951 25.6325L49.2055 24.5535C49.5362 24.4598 49.8423 24.3155 50.1193 24.1333L50.7987 24.8066C51.6381 25.6387 52.7545 26.097 53.9418 26.097C55.1292 26.097 56.2455 25.6387 57.085 24.8066L57.7642 24.1335C58.0411 24.3157 58.3473 24.4599 58.6779 24.5535L62.4884 25.6325C63.4841 25.9144 64.1796 26.828 64.1796 27.8544V37.6343C64.1796 38.9085 63.1337 39.945 61.848 39.945H57.2537C57.2546 39.9208 57.2574 39.8972 57.2574 39.8729V37.5622H60.7184C61.302 37.5622 61.7752 37.0933 61.7752 36.5149V29.7988C61.7752 29.2204 61.302 28.7515 60.7184 28.7515C60.1348 28.7515 59.6617 29.2204 59.6617 29.7988V35.4677H57.2574V30.9181C57.2574 29.7234 56.2768 28.7515 55.0712 28.7515H43.7039V27.8544ZM41.445 30.9181C41.445 30.8783 41.4776 30.8461 41.5177 30.8461H55.0712C55.1114 30.8461 55.1439 30.8783 55.1439 30.9181V39.8729C55.1439 39.9127 55.1114 39.945 55.0712 39.945H41.5177C41.4776 39.945 41.445 39.9127 41.445 39.8729V30.9181ZM13.6037 19.3824C13.582 19.3748 13.5707 19.359 13.5649 19.347C13.5561 19.3281 13.5599 19.3178 13.5616 19.3132C14.5584 16.5813 15.3077 12.0444 15.4652 9.81983C15.6005 7.91099 16.3605 6.15212 17.605 4.8676C18.8761 3.55571 20.5056 2.86241 22.3174 2.86241C24.1287 2.86241 25.7579 3.55571 27.029 4.8676C28.2735 6.15212 29.0335 7.91085 29.1688 9.81983C29.3264 12.0447 30.0757 16.5816 31.0724 19.3132C31.0741 19.3177 31.0779 19.3281 31.0689 19.347C31.0633 19.3588 31.0519 19.3748 31.0303 19.3824C29.413 19.9552 26.1303 20.9159 22.3168 20.9159C18.5031 20.9159 15.2209 19.9551 13.6037 19.3824ZM14.4836 44.4223H5.30257V42.0395H14.4836V44.4223ZM16.5971 46.661V32.0375C16.5971 31.3805 17.1364 30.8461 17.7992 30.8461H26.8348C27.4977 30.8461 28.037 31.3806 28.037 32.0375V46.661H16.5971ZM26.835 28.7515H17.7993C15.971 28.7515 14.4837 30.2257 14.4837 32.0375V39.945H14.411C13.1253 39.945 12.0795 38.9085 12.0795 37.6343V27.8544C12.0795 26.828 12.7749 25.9144 13.7705 25.6325L17.5808 24.5535C18.4916 24.2956 19.2258 23.6802 19.6342 22.8696C20.4898 22.9579 21.3883 23.0105 22.3169 23.0105C23.2473 23.0105 24.1473 22.9576 25.0044 22.869C25.4151 23.6753 26.1513 24.2981 27.0535 24.5536L30.8639 25.6326C31.8596 25.9145 32.5551 26.8282 32.5551 27.8545V37.6344C32.5551 38.9086 31.5092 39.9451 30.2235 39.9451H30.1508V32.0376C30.1506 30.2255 28.6632 28.7515 26.835 28.7515ZM30.1506 44.4223V42.0395H30.2233H68.6973V44.4223H30.1506Z" fill="#639645"/>
<path d="M51.6875 39.3931C52.448 39.3931 53.0645 38.7766 53.0645 38.0161C53.0645 37.2556 52.448 36.6392 51.6875 36.6392C50.927 36.6392 50.3105 37.2556 50.3105 38.0161C50.3105 38.7766 50.927 39.3931 51.6875 39.3931Z" fill="#639645"/>
</svg>
