<svg width="64" height="64" viewBox="0 0 64 64" fill="none" xmlns="http://www.w3.org/2000/svg">
<g clip-path="url(#clip0)">
<path d="M46.8836 17.7412C46.6512 17.5087 46.3287 17.375 45.9999 17.375C45.6712 17.375 45.3487 17.5087 45.1162 17.7412C44.8837 17.9737 44.7499 18.295 44.7499 18.625C44.7499 18.9537 44.8836 19.2762 45.1162 19.5087C45.3488 19.7412 45.6712 19.875 45.9999 19.875C46.3287 19.875 46.6512 19.7412 46.8836 19.5087C47.1161 19.2762 47.2499 18.9537 47.2499 18.625C47.2499 18.2962 47.1162 17.9737 46.8836 17.7412Z" fill="#639645"/>
<path d="M18.75 35.25H8.75C8.05975 35.25 7.5 35.8096 7.5 36.5V46.5C7.5 47.1904 8.05975 47.75 8.75 47.75H18.75C19.4402 47.75 20 47.1904 20 46.5V36.5C20 35.8096 19.4404 35.25 18.75 35.25ZM17.5 45.25H10V37.75H17.5V45.25Z" fill="#639645"/>
<path d="M63.2283 26.2202C62.7612 26.0266 62.2234 26.1338 61.866 26.4911L49.1288 39.2283C49.1287 39.2286 49.1284 39.2287 49.1282 39.229C49.1279 39.2292 49.1278 39.2293 49.1277 39.2296L34.2797 54.0776C34.2795 54.0778 34.2793 54.0779 34.2791 54.0782C34.2788 54.0784 34.2787 54.0786 34.2785 54.0788L26.4911 61.8662C26.1337 62.2237 26.0267 62.7614 26.2201 63.2284C26.4136 63.6955 26.8694 64 27.375 64H62.7499C63.4402 64 63.9999 63.4404 63.9999 62.75V27.3751C63.9999 26.8696 63.6954 26.4137 63.2283 26.2202ZM61.4999 61.5001H30.3928L35.163 56.7299L36.3562 57.9232C36.6003 58.1673 36.9202 58.2893 37.2401 58.2893C37.56 58.2893 37.8798 58.1673 38.124 57.9232C38.6121 57.4351 38.6121 56.6436 38.124 56.1553L36.9307 54.9621L40.1127 51.7801L41.3058 52.9732C41.55 53.2173 41.8698 53.3393 42.1897 53.3393C42.5096 53.3393 42.8294 53.2172 43.0736 52.9732C43.5617 52.4851 43.5617 51.6936 43.0736 51.2054L41.8803 50.0122L45.0623 46.8302L46.2556 48.0234C46.4997 48.2676 46.8196 48.3896 47.1394 48.3896C47.4593 48.3896 47.7792 48.2676 48.0233 48.0234C48.5114 47.5353 48.5114 46.7438 48.0233 46.2556L46.8301 45.0623L50.0119 41.8805L51.2052 43.0737C51.4493 43.3178 51.7692 43.4398 52.0891 43.4398C52.4089 43.4398 52.7288 43.3178 52.9729 43.0737C53.4611 42.5856 53.4611 41.7941 52.9729 41.3058L51.7797 40.1126L54.9617 36.9306L56.1548 38.1237C56.3989 38.3678 56.7188 38.4898 57.0387 38.4898C57.3585 38.4898 57.6784 38.3677 57.9225 38.1237C58.4107 37.6356 58.4107 36.8441 57.9225 36.356L56.7293 35.1627L61.4999 30.3928V61.5001Z" fill="#639645"/>
<path d="M56.9783 41.3091C56.5111 41.1155 55.9734 41.2226 55.616 41.58L41.5799 55.6162C41.2225 55.9737 41.1154 56.5113 41.3089 56.9785C41.5024 57.4456 41.9582 57.7501 42.4638 57.7501H56.4999C57.1901 57.7501 57.7499 57.1905 57.7499 56.5001V42.464C57.7499 41.9585 57.4454 41.5026 56.9783 41.3091ZM55.2499 55.2501H45.4816L55.2499 45.4817V55.2501Z" fill="#639645"/>
<path d="M57.8825 18.658C57.5384 18.314 57.0261 18.2008 56.5687 18.3682L48.0336 21.4938C47.863 21.5563 47.7081 21.6552 47.5795 21.7837L45.1796 24.1835L29.5089 8.51269C29.2744 8.27832 28.9565 8.14657 28.625 8.14657C28.2935 8.14657 27.9755 8.27832 27.7412 8.51269L8.87834 27.3755H4.26797L28.625 3.01833L41.9911 16.3844C42.4794 16.8726 43.2706 16.8726 43.759 16.3844C44.2471 15.8963 44.2471 15.1048 43.759 14.6166L29.509 0.366581C29.0208 -0.121543 28.2295 -0.121543 27.7412 0.366581L0.366228 27.7415C0.00885351 28.099 -0.0981463 28.6367 0.0952284 29.1038C0.288728 29.571 0.744477 29.8755 1.2501 29.8755H2.5001V62.7505C2.5001 63.4408 3.05985 64.0005 3.7501 64.0005H23.6233C24.3136 64.0005 24.8733 63.4408 24.8733 62.7505C24.8733 62.0601 24.3136 61.5005 23.6233 61.5005H5.00009V29.8755H9.39609C9.72758 29.8755 10.0455 29.7438 10.28 29.5094L28.625 11.1643L43.4118 25.9512L24.8751 44.488V33.2505H33.625C34.3153 33.2505 34.875 32.6909 34.875 32.0005C34.875 31.3101 34.3153 30.7505 33.625 30.7505H23.6251C22.9348 30.7505 22.3751 31.3101 22.3751 32.0005V46.5005C22.3751 46.6464 22.4013 46.7856 22.4472 46.9157L21.3273 48.0356C19.3486 50.0144 19.3486 53.2341 21.3273 55.2129C22.3168 56.2024 23.6162 56.6971 24.9159 56.697C26.2154 56.697 27.5153 56.2022 28.5045 55.213L39.046 44.6715C39.5342 44.1834 39.5342 43.3919 39.046 42.9038C38.5579 42.4156 37.7667 42.4156 37.2782 42.9038L29.2917 50.8902L25.6501 47.2486L48.4884 24.4103L52.13 28.0519L43.4031 36.7789C42.915 37.267 42.915 38.0585 43.4031 38.5466C43.8914 39.0348 44.6826 39.0348 45.171 38.5466L54.7567 28.9609C54.8851 28.8324 54.9841 28.6774 55.0465 28.5069L58.1722 19.9718C58.3396 19.5148 58.2266 19.0022 57.8825 18.658ZM27.524 52.6579L26.7368 53.4451C26.2504 53.9315 25.6039 54.1994 24.9161 54.1994C24.2282 54.1994 23.5816 53.9315 23.0953 53.4451C22.6088 52.9587 22.3411 52.3121 22.3411 51.6244C22.3411 50.9366 22.6087 50.2899 23.0952 49.8035L23.8824 49.0162L27.524 52.6579ZM53.3857 25.7718L50.7685 23.1545L54.8983 21.6422L53.3857 25.7718Z" fill="#639645"/>
<path d="M42.0861 39.8623C41.8537 39.6298 41.5312 39.4961 41.2025 39.4961C40.8737 39.4961 40.5512 39.6298 40.3187 39.8623C40.0862 40.0961 39.9525 40.4173 39.9525 40.7461C39.9525 41.0761 40.0861 41.3973 40.3187 41.6311C40.5512 41.8636 40.8725 41.9961 41.2025 41.9961C41.5312 41.9961 41.8537 41.8636 42.0861 41.6311C42.3186 41.3973 42.4524 41.0748 42.4524 40.7461C42.4524 40.4173 42.3187 40.0961 42.0861 39.8623Z" fill="#639645"/>
<path d="M28.6249 18.875C26.0058 18.875 23.8749 21.0059 23.8749 23.625C23.8749 26.2441 26.0058 28.375 28.6249 28.375C31.244 28.375 33.3749 26.2441 33.3749 23.625C33.3749 21.0059 31.244 18.875 28.6249 18.875ZM28.6249 25.875C27.3843 25.875 26.3749 24.8657 26.3749 23.625C26.3749 22.3844 27.3843 21.375 28.6249 21.375C29.8656 21.375 30.8749 22.3844 30.8749 23.625C30.8749 24.8656 29.8656 25.875 28.6249 25.875Z" fill="#639645"/>
</g>
<defs>
<clipPath id="clip0">
<rect width="64" height="64" fill="white"/>
</clipPath>
</defs>
</svg>
