<svg width="62" height="62" viewBox="0 0 62 62" fill="none" xmlns="http://www.w3.org/2000/svg">
<path d="M50.1343 18.0127C50.803 18.0127 51.3452 17.4706 51.3452 16.8018V3.63281C51.3452 1.62968 49.7155 0 47.7124 0H3.63428C1.63115 0 0.00146484 1.62968 0.00146484 3.63281V58.3672C0.00146484 60.3703 1.63115 62 3.63428 62H47.7124C49.7155 62 51.3452 60.3703 51.3452 58.3672V49.446C51.3452 48.7772 50.803 48.235 50.1343 48.235C49.4656 48.235 48.9234 48.7772 48.9234 49.446V58.3672C48.9234 59.0349 48.3801 59.5781 47.7124 59.5781H3.63428C2.96657 59.5781 2.42334 59.0349 2.42334 58.3672V3.63281C2.42334 2.9651 2.96657 2.42188 3.63428 2.42188H47.7124C48.3801 2.42188 48.9234 2.9651 48.9234 3.63281V16.8018C48.9234 17.4706 49.4656 18.0127 50.1343 18.0127Z" fill="#639645"/>
<path d="M25.6727 6.53906C19.5298 6.53906 14.5321 11.5367 14.5321 17.6797C14.5321 20.8665 15.8775 23.7447 18.0295 25.7771C18.0699 25.8202 18.1127 25.861 18.1596 25.8982C20.142 27.7121 22.7803 28.8202 25.6726 28.8202C28.5649 28.8202 31.2032 27.7119 33.1856 25.8982C33.2325 25.861 33.2754 25.8201 33.3157 25.7771C35.468 23.7447 36.8134 20.8665 36.8134 17.6797C36.8134 11.5367 31.8157 6.53906 25.6727 6.53906ZM25.6727 26.3984C23.6954 26.3984 21.8705 25.7358 20.4062 24.6222C21.4705 22.735 23.4566 21.5547 25.6727 21.5547C27.8889 21.5547 29.8749 22.735 30.9392 24.6222C29.4748 25.7358 27.6501 26.3984 25.6727 26.3984ZM23.7352 17.1953V16.4082C23.7352 15.3399 24.6044 14.4707 25.6727 14.4707C26.741 14.4707 27.6102 15.3399 27.6102 16.4082V17.1953C27.6102 18.2636 26.741 19.1328 25.6727 19.1328C24.6044 19.1328 23.7352 18.2636 23.7352 17.1953ZM32.6889 22.8483C31.7958 21.5238 30.5581 20.4937 29.1211 19.8577C29.6915 19.1206 30.0321 18.1972 30.0321 17.1953V16.4082C30.0321 14.0044 28.0766 12.0488 25.6727 12.0488C23.2689 12.0488 21.3134 14.0044 21.3134 16.4082V17.1953C21.3134 18.1972 21.654 19.1206 22.2243 19.8577C20.7873 20.4937 19.5496 21.5238 18.6566 22.8483C17.5874 21.4009 16.954 19.6132 16.954 17.6797C16.954 12.8721 20.8652 8.96094 25.6727 8.96094C30.4803 8.96094 34.3915 12.8721 34.3915 17.6797C34.3915 19.6132 33.758 21.4009 32.6889 22.8483Z" fill="#639645"/>
<path d="M32.2117 53.0391H25.6727C25.004 53.0391 24.4618 53.5812 24.4618 54.25C24.4618 54.9188 25.004 55.4609 25.6727 55.4609H32.2117C32.8804 55.4609 33.4227 54.9188 33.4227 54.25C33.4227 53.5812 32.8804 53.0391 32.2117 53.0391Z" fill="#639645"/>
<path d="M32.2118 46.2578H15.0165C14.3478 46.2578 13.8055 46.7999 13.8055 47.4688C13.8055 48.1376 14.3478 48.6797 15.0165 48.6797H32.2118C32.8805 48.6797 33.4227 48.1376 33.4227 47.4688C33.4227 46.7999 32.8805 46.2578 32.2118 46.2578Z" fill="#639645"/>
<path d="M32.2118 39.4766H15.0165C14.3478 39.4766 13.8055 40.0187 13.8055 40.6875C13.8055 41.3563 14.3478 41.8984 15.0165 41.8984H32.2118C32.8805 41.8984 33.4227 41.3563 33.4227 40.6875C33.4227 40.0187 32.8805 39.4766 32.2118 39.4766Z" fill="#639645"/>
<path d="M10.7006 33.0501C10.4755 32.8249 10.163 32.6953 9.84335 32.6953C9.52476 32.6953 9.21233 32.8249 8.98722 33.0501C8.76199 33.2754 8.63242 33.5878 8.63242 33.9062C8.63242 34.2247 8.76187 34.5371 8.98722 34.7624C9.21367 34.9876 9.52476 35.1172 9.84335 35.1172C10.163 35.1172 10.4743 34.9876 10.7006 34.7624C10.9258 34.5371 11.0555 34.2247 11.0555 33.9062C11.0555 33.5878 10.9259 33.2754 10.7006 33.0501Z" fill="#639645"/>
<path d="M10.7006 39.8314C10.4743 39.6061 10.163 39.4766 9.84335 39.4766C9.52476 39.4766 9.21367 39.6061 8.98722 39.8314C8.76199 40.0566 8.63242 40.369 8.63242 40.6875C8.63242 41.006 8.76187 41.3184 8.98722 41.5436C9.21367 41.7689 9.52476 41.8984 9.84335 41.8984C10.163 41.8984 10.4743 41.7689 10.7006 41.5436C10.9258 41.3184 11.0555 41.006 11.0555 40.6875C11.0555 40.369 10.9259 40.0566 10.7006 39.8314Z" fill="#639645"/>
<path d="M10.7006 46.6126C10.4743 46.3874 10.163 46.2578 9.84335 46.2578C9.52476 46.2578 9.21367 46.3874 8.98722 46.6126C8.76199 46.8379 8.63242 47.1503 8.63242 47.4688C8.63242 47.7872 8.76187 48.0996 8.98722 48.3249C9.21233 48.5501 9.52476 48.6797 9.84335 48.6797C10.163 48.6797 10.4755 48.5501 10.7006 48.3249C10.9258 48.0996 11.0555 47.7872 11.0555 47.4688C11.0555 47.1503 10.9259 46.8379 10.7006 46.6126Z" fill="#639645"/>
<path d="M32.2118 32.6953H15.0165C14.3478 32.6953 13.8055 33.2374 13.8055 33.9062C13.8055 34.5751 14.3478 35.1172 15.0165 35.1172H32.2118C32.8805 35.1172 33.4227 34.5751 33.4227 33.9062C33.4227 33.2374 32.8805 32.6953 32.2118 32.6953Z" fill="#639645"/>
<path d="M59.4573 15.7807C58.2808 15.1015 56.9103 14.9211 55.5979 15.2726C54.2857 15.6243 53.1889 16.4659 52.5098 17.6423L37.2711 44.0363C37.1876 44.181 37.1349 44.3414 37.1163 44.5074L36.0437 54.1155C35.9904 54.5936 36.2251 55.058 36.6416 55.2986C36.8297 55.4071 37.0386 55.4608 37.247 55.4608C37.5003 55.4608 37.7527 55.3815 37.9652 55.225L45.7496 49.4919C45.8841 49.3928 45.9967 49.267 46.0802 49.1223L61.3187 22.7284C62.721 20.2997 61.8859 17.183 59.4573 15.7807ZM38.7576 51.6334L39.3178 46.6163L42.8225 48.6398L38.7576 51.6334ZM44.5883 46.8626L39.974 44.1985L52.2027 23.018L56.8169 25.6821L44.5883 46.8626ZM59.2214 21.5173L58.0278 23.5847L53.4135 20.9207L54.6071 18.8532C54.9629 18.237 55.5373 17.7962 56.2247 17.612C56.9122 17.4277 57.6301 17.5224 58.2462 17.8782C58.8625 18.234 59.3032 18.8084 59.4874 19.4958C59.6716 20.1831 59.5772 20.901 59.2214 21.5173Z" fill="#639645"/>
</svg>
