<svg width="63" height="63" viewBox="0 0 63 63" fill="none" xmlns="http://www.w3.org/2000/svg">
<g clip-path="url(#clip0)">
<path d="M62.9998 54.9991L54.9016 50.95H32.3928V46.9009H58.712V20.4908C58.9507 20.5442 59.1939 20.5817 59.444 20.5817C61.2728 20.5817 62.7611 19.094 62.7611 17.2646V16.7209C62.7611 15.639 62.2317 14.6227 61.346 14.0029L41.5033 0.112793L32.508 6.40986H7.52534L0.236758 18.5572H2.02455V31.0465L0 33.3607V63.0973H32.3928V59.0482H54.9016L62.9998 54.9991ZM35.4297 52.9745H53.6506V57.0237H35.4297V52.9745ZM33.4051 57.0237H29.356C28.2394 57.0237 27.3314 56.1157 27.3314 54.9991C27.3314 53.8825 28.2394 52.9745 29.356 52.9745H33.4051V57.0237ZM55.6752 56.3984V53.6003L58.4733 54.9991L55.6752 56.3984ZM50.6138 44.8763H42.5156V33.7413C42.5156 33.1828 42.9693 32.729 43.5279 32.729H49.6015C50.1601 32.729 50.6138 33.1828 50.6138 33.7413V44.8763ZM52.6383 44.8763V33.7413C52.6383 32.0672 51.2756 30.7045 49.6015 30.7045H43.5279C41.8538 30.7045 40.491 32.0672 40.491 33.7413V44.8763H32.3928V24.6308H26.3192V19.3801L41.5033 8.66128L56.6875 19.3801V44.8763H52.6383ZM60.1849 15.6622C60.5309 15.9029 60.7366 16.2998 60.7366 16.7209V17.2646C60.7366 17.9774 60.1563 18.5572 59.444 18.5572C59.1756 18.5572 58.9176 18.4751 58.6987 18.3204L41.5033 6.18348L24.3099 18.3204C24.089 18.4751 23.831 18.5572 23.5626 18.5572C22.8503 18.5572 22.2701 17.9774 22.2701 17.2646V16.7209C22.2701 16.2998 22.4757 15.9029 22.8217 15.6622L41.5033 2.58466L60.1849 15.6622ZM8.67107 8.43441H29.615L21.6606 14.0029C20.8278 14.5852 20.3266 15.5223 20.2678 16.5326H3.81333L8.67107 8.43441ZM4.0491 18.5572H20.5075C21.0126 19.7459 22.191 20.5817 23.5626 20.5817C23.8117 20.5817 24.0559 20.5456 24.2946 20.4908V24.6308H7.63853L4.0491 28.7338V18.5572ZM7.08593 28.3379V32.729H3.24343L7.08593 28.3379ZM30.3683 61.0728H2.02455V34.7536H9.11048V26.6554H30.3683V50.95H29.356C27.1229 50.95 25.3069 52.766 25.3069 54.9991C25.3069 57.2322 27.1229 59.0482 29.356 59.0482H30.3683V61.0728Z" fill="#639645"/>
<path d="M22.27 36.7781H20.0448L22.0353 34.3902L20.4793 33.0938L17.4093 36.7781H4.04907V50.95H22.27V36.7781ZM20.2455 48.9254H6.07362V38.8026H15.7214L11.0663 44.3894L8.8129 42.136L7.38148 43.5675L11.2017 47.3877L18.3588 38.8026H20.2455V48.9254Z" fill="#639645"/>
<path d="M4.04907 57.0234H23.2823V59.048H4.04907V57.0234Z" fill="#639645"/>
<path d="M4.04907 52.9741H23.2823V54.9987H4.04907V52.9741Z" fill="#639645"/>
<path d="M11.135 28.6797H28.3437V30.7042H11.135V28.6797Z" fill="#639645"/>
<path d="M44.5402 36.7778H46.5647V38.8024H44.5402V36.7778Z" fill="#639645"/>
<path d="M33.405 23.6181H49.6014V17.5444H33.405V23.6181ZM35.4296 19.569H47.5769V21.5935H35.4296V19.569Z" fill="#639645"/>
</g>
<defs>
<clipPath id="clip0">
<rect width="63" height="63" fill="white"/>
</clipPath>
</defs>
</svg>
