<svg width="88" height="88" viewBox="0 0 88 88" fill="none" xmlns="http://www.w3.org/2000/svg">
<g clip-path="url(#clip0)">
<path d="M44.0011 19.8822C31.4481 19.8822 21.2351 30.0952 21.2351 42.6482C21.2351 47.7856 22.9197 52.6398 26.1043 56.6837C26.7329 57.4841 27.3935 58.2503 28.0928 59.0614L28.1312 59.106C30.2707 61.5882 32.4829 64.1558 33.309 67.1791C33.4957 67.8719 33.5222 69.2002 33.5115 70.2235V71.9626C33.5115 73.5541 34.8018 74.8445 36.3934 74.8445H51.4836C53.0752 74.8445 54.3655 73.5541 54.3655 71.9626V70.2031C54.3559 68.8667 54.425 67.8915 54.5645 67.3854C55.3953 64.3821 57.8468 61.4983 60.0293 58.9315L60.1234 58.8209C60.7532 58.0808 61.3484 57.3819 61.8902 56.6929C65.0795 52.6468 66.7652 47.7902 66.7652 42.6482C66.7648 30.0952 56.553 19.8822 44.0011 19.8822ZM57.3611 53.1278C56.8865 53.7315 56.3271 54.3889 55.7345 55.0848L55.6185 55.2212C53.069 58.2199 50.1795 61.6186 49.0083 65.8523C48.8427 66.4532 48.6586 67.3524 48.6117 69.0807H39.2698C39.2299 67.2452 39.0428 66.3037 38.8718 65.6697C37.6998 61.38 34.8152 58.0328 32.4971 55.3427L32.4583 55.2973C31.8031 54.5377 31.1845 53.8199 30.6346 53.1205C28.2561 50.1003 26.9988 46.4788 26.9988 42.6482C26.9988 33.2733 34.6262 25.6459 44.0011 25.6459C53.3749 25.6459 61.0011 33.2733 61.0011 42.6482C61.0011 46.483 59.743 50.1057 57.3611 53.1278Z" fill="#639645"/>
<path d="M51.4832 75.6626H36.3933C34.8018 75.6626 33.5115 76.9529 33.5115 78.5445C33.5115 80.136 34.8018 81.4263 36.3933 81.4263H51.4836C53.0751 81.4263 54.3655 80.136 54.3655 78.5445C54.3655 76.9529 53.0748 75.6626 51.4832 75.6626Z" fill="#639645"/>
<path d="M47.7108 82.2363H40.1661C38.5745 82.2363 37.2842 83.5266 37.2842 85.1182C37.2842 86.7098 38.5745 88.0001 40.1661 88.0001H47.7108C49.3024 88.0001 50.5927 86.7098 50.5927 85.1182C50.5927 83.5266 49.3024 82.2363 47.7108 82.2363Z" fill="#639645"/>
<path d="M83.7664 39.7664H73.8247C72.2332 39.7664 70.9429 41.0567 70.9429 42.6482C70.9429 44.2398 72.2332 45.5301 73.8247 45.5301H83.7664C85.358 45.5301 86.6483 44.2398 86.6483 42.6482C86.6483 41.0567 85.358 39.7664 83.7664 39.7664Z" fill="#639645"/>
<path d="M17.0584 42.6482C17.0584 41.0567 15.7681 39.7664 14.1765 39.7664H4.23368C2.64212 39.7664 1.35181 41.0567 1.35181 42.6482C1.35181 44.2398 2.64212 45.5301 4.23368 45.5301H14.1765C15.7681 45.5301 17.0584 44.2398 17.0584 42.6482Z" fill="#639645"/>
<path d="M44.0005 15.7085C45.5921 15.7085 46.8824 14.4182 46.8824 12.8266V2.88187C46.8824 1.29031 45.5921 0 44.0005 0C42.409 0 41.1187 1.29031 41.1187 2.88187V12.8266C41.1187 14.4182 42.409 15.7085 44.0005 15.7085Z" fill="#639645"/>
<path d="M67.1256 61.6985C66.0001 60.5731 64.1757 60.5727 63.0499 61.6982C61.9244 62.8236 61.924 64.648 63.0495 65.7739L70.0797 72.806C70.6426 73.369 71.38 73.6502 72.1177 73.6502C72.8551 73.6502 73.5925 73.369 74.1554 72.8064C75.2809 71.681 75.2813 69.8565 74.1558 68.7307L67.1256 61.6985Z" fill="#639645"/>
<path d="M20.8713 23.5959C21.4342 24.1588 22.1716 24.4405 22.9093 24.4405C23.6467 24.4405 24.3841 24.1592 24.9466 23.5967C26.0725 22.4712 26.0725 20.6468 24.9474 19.5213L17.9198 12.4911C16.7944 11.3652 14.97 11.3652 13.8445 12.4903C12.7186 13.6158 12.7186 15.4402 13.8437 16.5657L20.8713 23.5959Z" fill="#639645"/>
<path d="M20.8743 61.6986L13.8437 68.7308C12.7182 69.8562 12.7186 71.681 13.844 72.8061C14.4066 73.3687 15.1443 73.6499 15.8817 73.6499C16.6191 73.6499 17.3569 73.3687 17.9198 72.8057L24.9504 65.7736C26.0759 64.6481 26.0755 62.8233 24.95 61.6983C23.8245 60.5732 21.9997 60.5732 20.8743 61.6986Z" fill="#639645"/>
<path d="M65.0891 24.4402C65.8265 24.4402 66.5642 24.1589 67.1272 23.596L74.1558 16.5661C75.2813 15.4407 75.2809 13.6159 74.1555 12.4908C73.03 11.3653 71.2052 11.3653 70.0801 12.4912L63.0514 19.521C61.926 20.6465 61.9263 22.4713 63.0518 23.5964C63.614 24.1593 64.3513 24.4402 65.0891 24.4402Z" fill="#639645"/>
</g>
<defs>
<clipPath id="clip0">
<rect width="88" height="88" fill="white"/>
</clipPath>
</defs>
</svg>
