<svg width="99" height="99" viewBox="0 0 99 99" fill="none" xmlns="http://www.w3.org/2000/svg">
<path d="M12.375 75.7969H9.28125V78.8906H12.375V75.7969Z" fill="#639645"/>
<path d="M30.9375 75.7969H27.8438V78.8906H30.9375V75.7969Z" fill="#639645"/>
<path d="M43.3125 75.7969H40.2188V78.8906H43.3125V75.7969Z" fill="#639645"/>
<path d="M61.875 75.7969H58.7812V78.8906H61.875V75.7969Z" fill="#639645"/>
<path d="M94.3594 69.6094H83.5312V58.7812C83.5312 58.371 83.3683 57.9775 83.0782 57.6874C82.7881 57.3973 82.3946 57.2344 81.9844 57.2344H68.0625V47.9531H81.9844C82.3946 47.9531 82.7881 47.7902 83.0782 47.5001C83.3683 47.21 83.5312 46.8165 83.5312 46.4062V34.0312C83.5312 33.621 83.3683 33.2275 83.0782 32.9374C82.7881 32.6473 82.3946 32.4844 81.9844 32.4844H51.0469C50.6366 32.4844 50.2432 32.6473 49.9531 32.9374C49.663 33.2275 49.5 33.621 49.5 34.0312V44.8594H4.64062C4.23037 44.8594 3.83691 45.0223 3.54682 45.3124C3.25672 45.6025 3.09375 45.996 3.09375 46.4062V83.5312C3.09375 83.9415 3.25672 84.335 3.54682 84.6251C3.83691 84.9152 4.23037 85.0781 4.64062 85.0781H94.3594C94.7696 85.0781 95.1631 84.9152 95.4532 84.6251C95.7433 84.335 95.9062 83.9415 95.9062 83.5312V71.1562C95.9062 70.746 95.7433 70.3525 95.4532 70.0624C95.1631 69.7723 94.7696 69.6094 94.3594 69.6094ZM52.5938 35.5781H80.4375V44.8594H52.5938V35.5781ZM37.125 47.9531H64.9688V57.2344H37.125V47.9531ZM6.1875 47.9531H34.0312V57.2344H6.1875V47.9531ZM6.1875 60.3281H18.5625V69.6094H6.1875V60.3281ZM34.0312 81.9844H6.1875V72.7031H34.0312V81.9844ZM21.6562 69.6094V60.3281H49.5V69.6094H21.6562ZM64.9688 81.9844H37.125V72.7031H64.9688V81.9844ZM52.5938 69.6094V60.3281H80.4375V69.6094H52.5938ZM92.8125 81.9844H68.0625V72.7031H92.8125V81.9844Z" fill="#639645"/>
<path d="M74.25 75.7969H71.1562V78.8906H74.25V75.7969Z" fill="#639645"/>
<path d="M89.7188 75.7969H86.625V78.8906H89.7188V75.7969Z" fill="#639645"/>
<path d="M27.8438 63.4219H24.75V66.5156H27.8438V63.4219Z" fill="#639645"/>
<path d="M46.4062 63.4219H43.3125V66.5156H46.4062V63.4219Z" fill="#639645"/>
<path d="M58.7812 63.4219H55.6875V66.5156H58.7812V63.4219Z" fill="#639645"/>
<path d="M77.3438 63.4219H74.25V66.5156H77.3438V63.4219Z" fill="#639645"/>
<path d="M15.4688 63.4219H12.375V66.5156H15.4688V63.4219Z" fill="#639645"/>
<path d="M12.375 51.0469H9.28125V54.1406H12.375V51.0469Z" fill="#639645"/>
<path d="M30.9375 51.0469H27.8438V54.1406H30.9375V51.0469Z" fill="#639645"/>
<path d="M43.3125 51.0469H40.2188V54.1406H43.3125V51.0469Z" fill="#639645"/>
<path d="M61.875 51.0469H58.7812V54.1406H61.875V51.0469Z" fill="#639645"/>
<path d="M58.7812 38.6719H55.6875V41.7656H58.7812V38.6719Z" fill="#639645"/>
<path d="M77.3438 38.6719H74.25V41.7656H77.3438V38.6719Z" fill="#639645"/>
<path d="M10.8281 29.3906H41.7656C42.1759 29.3906 42.5693 29.2277 42.8594 28.9376C43.1495 28.6475 43.3125 28.254 43.3125 27.8438V15.4688C43.3125 15.0585 43.1495 14.665 42.8594 14.3749C42.5693 14.0848 42.1759 13.9219 41.7656 13.9219H10.8281C10.4179 13.9219 10.0244 14.0848 9.73432 14.3749C9.44422 14.665 9.28125 15.0585 9.28125 15.4688V27.8438C9.28125 28.254 9.44422 28.6475 9.73432 28.9376C10.0244 29.2277 10.4179 29.3906 10.8281 29.3906ZM12.375 17.0156H40.2188V26.2969H12.375V17.0156Z" fill="#639645"/>
<path d="M18.5625 20.1094H15.4688V23.2031H18.5625V20.1094Z" fill="#639645"/>
<path d="M37.125 20.1094H34.0312V23.2031H37.125V20.1094Z" fill="#639645"/>
<path d="M18.5625 32.4844H15.4688V38.6719H18.5625V32.4844Z" fill="#639645"/>
<path d="M24.75 32.4844H21.6562V38.6719H24.75V32.4844Z" fill="#639645"/>
<path d="M30.9375 32.4844H27.8438V38.6719H30.9375V32.4844Z" fill="#639645"/>
<path d="M37.125 32.4844H34.0312V38.6719H37.125V32.4844Z" fill="#639645"/>
</svg>
