<svg width="84" height="84" viewBox="0 0 84 84" fill="none" xmlns="http://www.w3.org/2000/svg">
<path d="M64.1484 12.9453V6.35522H19.8516V10.7915V12.9453C10.3422 14.5118 0 17.5927 0 23.5818V67.8787C0 69.9908 1.29577 71.8818 3.85137 73.4993C5.76352 74.7094 8.43724 75.8058 11.7982 76.7577L14.9297 77.6447V63.2624C16.4512 62.8867 18.0958 62.5438 19.8516 62.2364V65.4177V75.2615H64.1484C64.1484 72.8312 64.1484 64.8985 64.1484 62.2364C65.9042 62.5438 67.5488 62.8867 69.0703 63.2624V77.6447L72.2019 76.7576C75.5629 75.8055 78.2365 74.7092 80.1488 73.4991C82.7042 71.8816 84 69.9906 84 67.8787V23.5818C84 17.5927 73.6578 14.5118 64.1484 12.9453ZM10.0078 71.0072C6.01158 69.515 4.96568 68.2017 4.92188 67.8787V29.8254C6.31624 30.5748 8.01806 31.2755 10.0078 31.919V71.0072ZM19.8516 57.2433C18.1161 57.5311 16.4729 57.8525 14.9297 58.2044V28.2323L13.1394 27.7252C6.52739 25.8524 4.97536 23.9767 4.92188 23.5818C4.92188 23.5713 5.22014 22.4125 8.92451 20.86C11.6596 19.7137 15.4015 18.7167 19.8516 17.9397C19.8516 27.4044 19.8516 49.8715 19.8516 57.2433ZM59.2266 70.3396H24.7734V65.4177C26.1614 65.4177 56.9719 65.4177 59.2266 65.4177V70.3396ZM26.9318 60.4959L37.0781 47.3056L47.2246 60.4959C44.9233 60.4959 29.1347 60.4959 26.9318 60.4959ZM48.9687 54.6908L51.5214 52.0584L57.3403 60.4959H53.4342L48.9687 54.6908ZM59.2266 54.5616L52.1661 44.3239L45.936 50.7482L37.0781 39.233L24.7734 55.2291C24.7734 54.1447 24.7734 22.3116 24.7734 21.1209H59.2266V54.5616ZM59.2266 16.199H24.7734V11.2771H59.2266V16.199ZM79.0781 67.8755C79.0307 68.2055 77.9812 69.5175 73.9922 71.0072V31.9191C75.9819 31.2755 77.6838 30.575 79.0781 29.8255V67.8755ZM70.8606 27.7252L69.0703 28.2323V58.2042C67.5271 57.8523 65.8839 57.5309 64.1484 57.2432C64.1484 55.9018 64.1484 19.041 64.1484 17.9395C68.5983 18.7165 72.3402 19.7135 75.0755 20.8598C78.7799 22.4125 79.0781 23.5713 79.0785 23.5769C79.0246 23.9767 77.4726 25.8524 70.8606 27.7252Z" fill="#639645"/>
<path d="M46.9219 26.0427C42.851 26.0427 39.5391 29.3547 39.5391 33.4255C39.5391 37.4964 42.851 40.8083 46.9219 40.8083C50.9928 40.8083 54.3047 37.4964 54.3047 33.4255C54.3047 29.3547 50.9928 26.0427 46.9219 26.0427ZM46.9219 35.8865C45.5649 35.8865 44.4609 34.7825 44.4609 33.4255C44.4609 32.0686 45.5649 30.9646 46.9219 30.9646C48.2788 30.9646 49.3828 32.0686 49.3828 33.4255C49.3828 34.7825 48.2788 35.8865 46.9219 35.8865Z" fill="#639645"/>
</svg>
