<svg width="88" height="88" viewBox="0 0 88 88" fill="none" xmlns="http://www.w3.org/2000/svg">
<g clip-path="url(#clip0)">
<path d="M87.9855 0H0.0144043V88L13.0632 81.5826L23.3817 86.7418L33.6909 81.5872L44 86.7418L54.3091 81.5872L64.6182 86.7418L74.9368 81.5826L87.9855 88V0ZM5.16896 28.9093L13.0628 25.0283L20.8045 28.899V48.9089L13.0824 45.0478L5.16896 48.9382V28.9093ZM41.4227 48.9089L33.6909 45.0429L25.959 48.9089V28.899L33.6909 25.0331L41.4227 28.899V48.9089ZM46.5773 28.899L54.3091 25.0331L62.0409 28.899V48.9089L54.3091 45.0429L46.5773 48.9089V28.899ZM62.0409 23.1361L54.3091 19.2701L46.5773 23.1361V5.15456H62.0409V23.1361ZM41.4227 23.1361L33.6909 19.2701L25.959 23.1361V5.15456H41.4227V23.1361ZM5.16896 54.6821L13.0628 50.8011L20.8045 54.6718V68.1654L13.0824 64.3043L5.16896 68.1948V54.6821ZM25.959 54.6718L33.6909 50.8059L41.4227 54.6718V68.1654L33.6909 64.2995L25.959 68.1654V54.6718ZM46.5773 54.6718L54.3091 50.8059L62.0409 54.6718V68.1654L54.3091 64.2995L46.5773 68.1654V54.6718ZM67.1955 54.6718L74.9371 50.8011L82.831 54.6821V68.1948L74.9175 64.3043L67.1955 68.1654V54.6718ZM74.9175 45.0479L67.1955 48.909V28.899L74.9371 25.0283L82.831 28.9093V48.9384L74.9175 45.0479ZM82.831 23.1654L74.9175 19.275L67.1955 23.1361V5.15456H82.831V23.1654ZM20.8045 5.15456V23.1361L13.0824 19.275L5.16896 23.1654V5.15456H20.8045ZM74.9179 75.8291L64.6182 80.979L54.3091 75.8244L44 80.979L33.6909 75.8244L23.3817 80.979L13.0821 75.8291L5.16896 79.7207V73.9387L13.0628 70.0577L23.3817 75.217L33.6909 70.0625L44 75.217L54.3091 70.0625L64.6182 75.217L74.9371 70.0577L82.831 73.9387V79.7207L74.9179 75.8291Z" fill="#639645"/>
</g>
<defs>
<clipPath id="clip0">
<rect width="88" height="88" fill="white"/>
</clipPath>
</defs>
</svg>
