<svg width="88" height="88" viewBox="0 0 88 88" fill="none" xmlns="http://www.w3.org/2000/svg">
<g clip-path="url(#clip0)">
<path d="M15.4251 60.6081L18.9942 58.5154C20.582 57.5842 22.5485 57.5949 24.1256 58.5436L27.4651 60.551C29.0784 61.5212 30.8925 62.0066 32.7079 62.0066C34.4851 62.0066 36.2636 61.5406 37.8541 60.6081L41.4232 58.5154C43.011 57.5842 44.9775 57.5949 46.5553 58.5436L49.8941 60.551C53.0886 62.4712 57.0692 62.4927 60.2838 60.6081L63.8529 58.5154C65.4407 57.5842 67.4066 57.5949 68.9843 58.5436L72.3231 60.551C75.5176 62.4712 79.4982 62.4927 82.7128 60.6081L86.2853 58.5134L83.6776 54.0654L80.1045 56.1602C78.5193 57.09 76.5555 57.0793 74.9805 56.132L71.641 54.1245C68.9447 52.5031 65.6865 52.2339 62.8015 53.3235V13.8668C62.8015 9.06372 66.709 5.15625 71.5121 5.15625H75.8835V0H71.5114C63.8657 0 57.6453 6.2204 57.6453 13.8668V18.0818H36.0192V13.8668C36.0192 9.06372 39.9267 5.15625 44.7298 5.15625H49.1012V0H44.7298C37.0834 0 30.863 6.2204 30.863 13.8668V56.4958C30.6092 56.3951 30.3608 56.2756 30.1218 56.132L26.783 54.1245C23.5872 52.203 19.6031 52.1808 16.3865 54.0674L12.8168 56.1602C11.2316 57.09 9.26782 57.0793 7.69275 56.132L4.37543 54.1379L1.71875 58.557L5.03607 60.551C8.22986 62.4712 12.2105 62.4927 15.4251 60.6081ZM52.5515 56.132L49.212 54.1245C46.0162 52.203 42.0322 52.1808 38.8156 54.0674L36.0192 55.707V41.6884H57.6453V56.1769C56.0648 57.0894 54.1165 57.0732 52.5515 56.132ZM57.6446 23.238V36.5322H36.0192V23.238H57.6446Z" fill="#639645"/>
<path d="M15.4251 73.6049L18.9942 71.5122C20.582 70.5809 22.5485 70.5917 24.1256 71.5404L27.4651 73.5478C30.6589 75.468 34.6395 75.4895 37.8541 73.6049L41.4232 71.5122C43.011 70.5809 44.9775 70.5917 46.5553 71.5404L49.8941 73.5478C53.0879 75.468 57.0685 75.4901 60.2838 73.6049L63.8529 71.5122C65.4407 70.5809 67.4066 70.5917 68.9843 71.5404L72.3231 73.5478C73.9371 74.518 75.7512 75.0034 77.566 75.0034C79.3438 75.0034 81.1223 74.5374 82.7128 73.6049L86.2853 71.5101L83.6769 67.0622L80.1045 69.1569C78.5187 70.0868 76.5555 70.0761 74.9805 69.1287L71.641 67.1213C68.4452 65.1991 64.4619 65.1776 61.2446 67.0642L57.6755 69.1569C56.0903 70.0868 54.1265 70.0761 52.5515 69.1287L49.2126 67.1213C46.0162 65.1991 42.0322 65.1776 38.8156 67.0642L35.2465 69.1569C33.6613 70.0868 31.6975 70.0761 30.1224 69.1287L26.7836 67.1213C23.5872 65.1991 19.6031 65.1776 16.3865 67.0642L12.8174 69.1569C11.2316 70.0868 9.26849 70.0761 7.69342 69.1287L4.3761 67.1347L1.71875 71.5531L5.03607 73.5478C8.22986 75.468 12.2105 75.4901 15.4251 73.6049Z" fill="#639645"/>
<path d="M80.1045 82.1536C78.5187 83.0835 76.5555 83.0727 74.9805 82.1254L71.641 80.118C68.4452 78.1958 64.4612 78.1736 61.2446 80.0602L57.6755 82.1536C56.0897 83.0835 54.1265 83.0727 52.5515 82.1254L49.212 80.118C46.0162 78.1958 42.0322 78.1743 38.8156 80.0602L35.2465 82.1536C33.6613 83.0828 31.6975 83.0727 30.1224 82.1254L26.783 80.118C23.5872 78.1958 19.6031 78.1743 16.3865 80.0602L12.8174 82.1536C11.2316 83.0828 9.26849 83.0727 7.69342 82.1254L4.3761 80.1307L1.71875 84.5498L5.03607 86.5445C8.22919 88.464 12.2105 88.4861 15.4251 86.6015L18.9942 84.5082C20.582 83.5769 22.5485 83.5884 24.1256 84.5364L27.4651 86.5445C30.6589 88.4646 34.6395 88.4861 37.8541 86.6015L41.4232 84.5082C43.011 83.5769 44.9775 83.5884 46.5553 84.5364L49.8941 86.5445C53.0879 88.464 57.0685 88.4861 60.2838 86.6015L63.8529 84.5082C65.4407 83.5769 67.4066 83.5884 68.9843 84.5364L72.3231 86.5445C73.9371 87.5146 75.7512 88 77.566 88C79.3438 88 81.1223 87.5341 82.7128 86.6015L86.2853 84.5061L83.6769 80.0582L80.1045 82.1536Z" fill="#639645"/>
</g>
<defs>
<clipPath id="clip0">
<rect width="88" height="88" fill="white"/>
</clipPath>
</defs>
</svg>
