<svg width="88" height="88" viewBox="0 0 88 88" fill="none" xmlns="http://www.w3.org/2000/svg">
<path d="M67.9443 5.15625H88V0H66.462L0.00601562 41.6436L2.74398 46.0128L10.4844 41.1623V61.875H0V77.3438H5.32812V88H88C88 85.1864 88 24.9702 88 20.625H67.2031V5.62066L67.9443 5.15625ZM15.6406 37.9313L36.2656 25.007V41.25H25.9531V56.7188H31.1094V61.875H15.6406V37.9313ZM31.1094 51.5625V46.4062H56.8906V51.5625H31.1094ZM5.15625 67.0312H31.1094V72.1875H5.15625V67.0312ZM82.8438 82.8438H10.4844V77.3438H36.2656C36.2656 73.9506 36.2656 62.1651 36.2656 56.7188H62.0469C62.0469 53.3256 62.0469 41.5401 62.0469 36.0938H82.8438V82.8438ZM82.8438 30.9375H56.8906V25.7812H82.8438C82.8438 27.3477 82.8438 29.4039 82.8438 30.9375ZM62.0469 20.625H51.7344V36.0938H56.8906V41.25H41.4219V21.7759L62.0469 8.85156V20.625Z" fill="#639645"/>
</svg>
