<svg width="104" height="104" viewBox="0 0 104 104" fill="none" xmlns="http://www.w3.org/2000/svg">
<path d="M94.25 29.25H97.5V16.25H6.5V29.25H9.75V74.75H3.25V87.75H100.75V74.75H94.25V29.25ZM81.25 19.5H94.25V26H81.25V19.5ZM81.25 61.75H87.75V58.5H81.25V42.25H86.125V39H81.25V29.25H91V32.5H87.75V35.75H91V52H87.75V55.25H91V74.75H81.25V61.75ZM26 19.5H78V32.5H26V19.5ZM26 35.75H78V74.75H74.75V39H29.25V74.75H26V35.75ZM63.2255 61.0708C63.107 60.8132 62.9231 60.5912 62.6922 60.4267C62.4613 60.2622 62.1914 60.161 61.9092 60.1331C61.6266 60.1023 61.3408 60.1475 61.0814 60.264C60.822 60.3806 60.5984 60.5643 60.4337 60.7961C60.3817 60.8692 59.6017 61.945 58.7275 63.245C56.5662 58.7421 53.586 53.1472 53.4333 52.8612C53.3007 52.6127 53.1058 52.403 52.8677 52.2525C52.6296 52.102 52.3565 52.016 52.0752 52.0029C51.7938 51.9898 51.5139 52.05 51.2628 52.1777C51.0118 52.3054 50.7982 52.4962 50.6431 52.7313C50.4904 52.9636 47.4988 57.5104 45.3115 61.6688C44.421 60.3444 43.6182 59.2313 43.5662 59.163C43.394 58.9248 43.1603 58.7378 42.8901 58.6219C42.6199 58.506 42.3234 58.4656 42.032 58.505C41.7407 58.5443 41.4655 58.662 41.2357 58.8454C41.006 59.0288 40.8303 59.2711 40.7274 59.5465C40.3845 60.4728 37.375 68.5978 37.375 71.5C37.3817 72.6444 37.6936 73.7663 38.2785 74.75H32.5V42.25H71.5V74.75H65.7215C66.3064 73.7663 66.6183 72.6444 66.625 71.5C66.625 68.5978 63.7943 62.3025 63.2255 61.0708ZM53.3374 65.702C53.1799 65.497 52.9773 65.331 52.7454 65.2168C52.5135 65.1026 52.2585 65.0431 52 65.0431C51.7415 65.0431 51.4865 65.1026 51.2546 65.2168C51.0227 65.331 50.8202 65.497 50.6626 65.702C49.5983 67.2409 47.125 71.0482 47.125 73.125C47.1304 73.6798 47.2315 74.2296 47.424 74.75H43.875C43.013 74.75 42.1864 74.4076 41.5769 73.7981C40.9674 73.1886 40.625 72.362 40.625 71.5C41.0459 68.8164 41.748 66.1846 42.7196 63.648C43.2071 64.3727 43.7044 65.1463 44.0976 65.8206C44.2485 66.0795 44.468 66.2916 44.7318 66.4336C44.9957 66.5755 45.2937 66.6417 45.5928 66.6249C45.892 66.6081 46.1807 66.5089 46.427 66.3383C46.6733 66.1677 46.8676 65.9323 46.9885 65.6581C48.4275 62.6284 50.0557 59.6922 51.8635 56.8669C53.3471 59.7106 55.7294 64.363 57.0099 67.2831C57.1308 67.5573 57.3251 67.7927 57.5714 67.9633C57.8177 68.1339 58.1064 68.2331 58.4055 68.2499C58.7047 68.2667 59.0027 68.2005 59.2665 68.0586C59.5304 67.9166 59.7499 67.7045 59.9007 67.4456C60.3314 66.7095 60.8871 65.8547 61.412 65.0731C62.3536 67.1169 63.0139 69.2789 63.375 71.5C63.375 72.362 63.0326 73.1886 62.4231 73.7981C61.8136 74.4076 60.987 74.75 60.125 74.75H56.576C56.7685 74.2296 56.8696 73.6798 56.875 73.125C56.875 71.0482 54.4018 67.2409 53.3374 65.702ZM53.625 73.125C53.625 73.556 53.4538 73.9693 53.149 74.274C52.8443 74.5788 52.431 74.75 52 74.75C51.569 74.75 51.1557 74.5788 50.851 74.274C50.5462 73.9693 50.375 73.556 50.375 73.125C50.7273 71.8829 51.2759 70.7051 52 69.6361C52.724 70.7052 53.2725 71.8829 53.625 73.125ZM9.75 19.5H22.75V26H9.75V19.5ZM22.75 53.625V74.75H13V61.75H16.25V58.5H13V35.75H19.5V32.5H13V29.25H22.75V50.375H19.5V53.625H22.75ZM97.5 78V84.5H6.5V78H97.5Z" fill="#639645"/>
<path d="M19.5 40.625H16.25V43.875H19.5V40.625Z" fill="#639645"/>
<path d="M19.5 65H16.25V68.25H19.5V65Z" fill="#639645"/>
<path d="M87.75 45.5H84.5V48.75H87.75V45.5Z" fill="#639645"/>
<path d="M87.75 66.625H84.5V69.875H87.75V66.625Z" fill="#639645"/>
<path d="M61.75 24.375H42.25V27.625H61.75V24.375Z" fill="#639645"/>
<path d="M68.25 24.375H65V27.625H68.25V24.375Z" fill="#639645"/>
<path d="M39 24.375H35.75V27.625H39V24.375Z" fill="#639645"/>
</svg>
