<svg width="28" height="27" viewBox="0 0 28 27" fill="none" xmlns="http://www.w3.org/2000/svg">
<g clip-path="url(#clip0)">
<path d="M12.6756 16.0291L17.067 13.4999L12.6756 10.9707V16.0291Z" fill="white"/>
<path d="M14.3571 0C6.90244 0 0.857147 6.0453 0.857147 13.5C0.857147 20.9547 6.90244 27 14.3571 27C21.8119 27 27.8571 20.9547 27.8571 13.5C27.8571 6.0453 21.8119 0 14.3571 0ZM22.7926 13.5138C22.7926 13.5138 22.7926 16.2517 22.4453 17.5719C22.2506 18.2945 21.6808 18.8643 20.9582 19.0587C19.638 19.4062 14.3571 19.4062 14.3571 19.4062C14.3571 19.4062 9.0901 19.4062 7.75608 19.0449C7.03345 18.8505 6.46368 18.2805 6.26901 17.5579C5.9215 16.2517 5.9215 13.5 5.9215 13.5C5.9215 13.5 5.9215 10.7623 6.26901 9.44213C6.46347 8.71951 7.04726 8.13572 7.75608 7.94126C9.07629 7.59375 14.3571 7.59375 14.3571 7.59375C14.3571 7.59375 19.638 7.59375 20.9582 7.95506C21.6808 8.14952 22.2506 8.71951 22.4453 9.44213C22.8066 10.7623 22.7926 13.5138 22.7926 13.5138Z" fill="white"/>
</g>
<defs>
<clipPath id="clip0">
<rect width="27" height="27" fill="white" transform="translate(0.857147)"/>
</clipPath>
</defs>
</svg>
